<svg width="102" height="102" viewBox="0 0 102 102" fill="none" xmlns="http://www.w3.org/2000/svg">
<rect width="102" height="102" rx="10.625" fill="#7FD7FF"/>
<g clip-path="url(#clip0_1411_2422)">
<path d="M44.4281 63.6667V60.375H21.4193L21.3864 73.5417C21.3864 77.1954 24.316 80.125 27.9697 80.125H74.0531C77.7068 80.125 80.6364 77.1954 80.6364 73.5417V60.375H57.5947V63.6667H44.4281ZM77.3447 34.0417H64.1451V27.4583L57.5618 20.875H44.3951L37.8118 27.4583V34.0417H24.6781C21.0572 34.0417 18.0947 37.0042 18.0947 40.625V50.5C18.0947 54.1538 21.0243 57.0833 24.6781 57.0833H44.4281V50.5H57.5947V57.0833H77.3447C80.9656 57.0833 83.9281 54.1208 83.9281 50.5V40.625C83.9281 37.0042 80.9656 34.0417 77.3447 34.0417ZM57.5947 34.0417H44.4281V27.4583H57.5947V34.0417Z" fill="#181A1E"/>
</g>
<defs>
<clipPath id="clip0_1411_2422">
<rect width="79" height="79" fill="white" transform="translate(11.5117 11)"/>
</clipPath>
</defs>
</svg>
