<svg width="324" height="398" viewBox="0 0 324 398" fill="none" xmlns="http://www.w3.org/2000/svg">
<g filter="url(#filter0_d_1669_24900)">
<rect x="11" y="11" width="301.646" height="375.8" rx="25.1371" fill="#262930"/>
<path d="M50.3141 63.7232V77.7598H47.4987V68.63L43.7382 77.7598H41.6066L37.826 68.63V77.7598H35.0106V63.7232H38.2081L42.6724 74.1601L47.1368 63.7232H50.3141ZM57.5318 77.9408C56.4592 77.9408 55.494 77.7061 54.636 77.2369C53.7779 76.7543 53.1009 76.0773 52.6049 75.2058C52.1222 74.3344 51.8809 73.3289 51.8809 72.1894C51.8809 71.0498 52.1289 70.0443 52.625 69.1729C53.1344 68.3015 53.8249 67.6312 54.6963 67.162C55.5677 66.6793 56.5397 66.438 57.6122 66.438C58.6847 66.438 59.6567 66.6793 60.5281 67.162C61.3995 67.6312 62.0832 68.3015 62.5793 69.1729C63.0887 70.0443 63.3435 71.0498 63.3435 72.1894C63.3435 73.3289 63.082 74.3344 62.5592 75.2058C62.0497 76.0773 61.3526 76.7543 60.4678 77.2369C59.5963 77.7061 58.6177 77.9408 57.5318 77.9408ZM57.5318 75.4874C58.0412 75.4874 58.5171 75.3667 58.9595 75.1254C59.4154 74.8707 59.7773 74.4953 60.0455 73.9993C60.3136 73.5032 60.4477 72.8999 60.4477 72.1894C60.4477 71.1303 60.1661 70.3192 59.6031 69.7561C59.0534 69.1796 58.3764 68.8914 57.572 68.8914C56.7676 68.8914 56.0906 69.1796 55.5409 69.7561C55.0046 70.3192 54.7365 71.1303 54.7365 72.1894C54.7365 73.2485 54.9979 74.0663 55.5208 74.6428C56.057 75.2058 56.7274 75.4874 57.5318 75.4874ZM69.5412 75.1656L72.3565 66.619H75.3529L71.2304 77.7598H67.8117L63.7094 66.619H66.7258L69.5412 75.1656ZM77.8491 65.2918C77.3531 65.2918 76.9375 65.1376 76.6023 64.8292C76.2806 64.5075 76.1197 64.112 76.1197 63.6428C76.1197 63.1735 76.2806 62.7847 76.6023 62.4764C76.9375 62.1546 77.3531 61.9938 77.8491 61.9938C78.3452 61.9938 78.7541 62.1546 79.0758 62.4764C79.411 62.7847 79.5786 63.1735 79.5786 63.6428C79.5786 64.112 79.411 64.5075 79.0758 64.8292C78.7541 65.1376 78.3452 65.2918 77.8491 65.2918ZM79.2367 66.619V77.7598H76.4214V66.619H79.2367ZM91.862 71.9481C91.862 72.3503 91.8352 72.7122 91.7816 73.034H83.6371C83.7042 73.8384 83.9857 74.4685 84.4817 74.9243C84.9778 75.3801 85.5878 75.608 86.3117 75.608C87.3574 75.608 88.1015 75.1589 88.5439 74.2607H91.5805C91.2587 75.3332 90.642 76.218 89.7304 76.9152C88.8187 77.5989 87.6993 77.9408 86.372 77.9408C85.2995 77.9408 84.3343 77.7061 83.4763 77.2369C82.6316 76.7543 81.968 76.0773 81.4854 75.2058C81.0162 74.3344 80.7816 73.3289 80.7816 72.1894C80.7816 71.0364 81.0162 70.0242 81.4854 69.1528C81.9546 68.2814 82.6115 67.6111 83.4561 67.1418C84.3007 66.6726 85.2727 66.438 86.372 66.438C87.4312 66.438 88.3763 66.6659 89.2075 67.1217C90.0521 67.5776 90.7023 68.2278 91.1582 69.0724C91.6274 69.9036 91.862 70.8621 91.862 71.9481ZM88.9461 71.1437C88.9327 70.4197 88.6713 69.8432 88.1618 69.4142C87.6524 68.9718 87.029 68.7506 86.2916 68.7506C85.5945 68.7506 85.0046 68.9651 84.522 69.3941C84.0527 69.8097 83.7645 70.3929 83.6572 71.1437H88.9461ZM102.53 77.9005C101.551 77.9005 100.666 77.733 99.8751 77.3978C99.0975 77.0626 98.4808 76.58 98.025 75.9499C97.5692 75.3198 97.3346 74.5757 97.3212 73.7177H100.338C100.378 74.2942 100.579 74.75 100.941 75.0852C101.316 75.4203 101.826 75.5879 102.469 75.5879C103.126 75.5879 103.642 75.4337 104.018 75.1254C104.393 74.8036 104.581 74.388 104.581 73.8786C104.581 73.463 104.453 73.1211 104.199 72.853C103.944 72.5849 103.622 72.3771 103.233 72.2296C102.858 72.0687 102.335 71.8944 101.665 71.7067C100.753 71.4386 100.009 71.1772 99.4327 70.9225C98.8696 70.6543 98.3803 70.2588 97.9647 69.736C97.5625 69.1997 97.3614 68.4892 97.3614 67.6044C97.3614 66.7732 97.5692 66.0492 97.9848 65.4325C98.4004 64.8158 98.9836 64.3466 99.7343 64.0248C100.485 63.6897 101.343 63.5221 102.308 63.5221C103.756 63.5221 104.929 63.8774 105.828 64.5879C106.739 65.285 107.242 66.2637 107.336 67.5239H104.239C104.212 67.0413 104.004 66.6458 103.615 66.3375C103.24 66.0157 102.737 65.8548 102.107 65.8548C101.558 65.8548 101.115 65.9956 100.78 66.2771C100.458 66.5587 100.297 66.9676 100.297 67.5038C100.297 67.8792 100.418 68.1943 100.659 68.449C100.914 68.6903 101.222 68.8914 101.584 69.0523C101.96 69.1997 102.483 69.374 103.153 69.5751C104.065 69.8432 104.809 70.1114 105.385 70.3795C105.962 70.6476 106.458 71.0498 106.873 71.5861C107.289 72.1223 107.497 72.8262 107.497 73.6976C107.497 74.4484 107.302 75.1455 106.913 75.789C106.525 76.4325 105.955 76.9487 105.204 77.3375C104.453 77.7128 103.562 77.9005 102.53 77.9005ZM114.372 77.9408C113.299 77.9408 112.334 77.7061 111.476 77.2369C110.618 76.7543 109.941 76.0773 109.445 75.2058C108.962 74.3344 108.721 73.3289 108.721 72.1894C108.721 71.0498 108.969 70.0443 109.465 69.1729C109.974 68.3015 110.665 67.6312 111.536 67.162C112.408 66.6793 113.38 66.438 114.452 66.438C115.525 66.438 116.497 66.6793 117.368 67.162C118.239 67.6312 118.923 68.3015 119.419 69.1729C119.929 70.0443 120.183 71.0498 120.183 72.1894C120.183 73.3289 119.922 74.3344 119.399 75.2058C118.89 76.0773 118.193 76.7543 117.308 77.2369C116.436 77.7061 115.458 77.9408 114.372 77.9408ZM114.372 75.4874C114.881 75.4874 115.357 75.3667 115.799 75.1254C116.255 74.8707 116.617 74.4953 116.885 73.9993C117.154 73.5032 117.288 72.8999 117.288 72.1894C117.288 71.1303 117.006 70.3192 116.443 69.7561C115.893 69.1796 115.216 68.8914 114.412 68.8914C113.607 68.8914 112.93 69.1796 112.381 69.7561C111.845 70.3192 111.576 71.1303 111.576 72.1894C111.576 73.2485 111.838 74.0663 112.361 74.6428C112.897 75.2058 113.567 75.4874 114.372 75.4874ZM121.012 72.1894C121.012 71.0364 121.246 70.0309 121.716 69.1729C122.185 68.3015 122.835 67.6312 123.666 67.162C124.497 66.6793 125.449 66.438 126.522 66.438C127.903 66.438 129.042 66.7866 129.941 67.4837C130.852 68.1674 131.462 69.1327 131.77 70.3795H128.734C128.573 69.8969 128.298 69.5215 127.909 69.2534C127.534 68.9718 127.065 68.8311 126.502 68.8311C125.697 68.8311 125.061 69.126 124.591 69.7159C124.122 70.2924 123.887 71.1169 123.887 72.1894C123.887 73.2485 124.122 74.073 124.591 74.6629C125.061 75.2393 125.697 75.5276 126.502 75.5276C127.641 75.5276 128.385 75.0181 128.734 73.9993H131.77C131.462 75.2058 130.852 76.1644 129.941 76.8749C129.029 77.5855 127.889 77.9408 126.522 77.9408C125.449 77.9408 124.497 77.7061 123.666 77.2369C122.835 76.7543 122.185 76.084 121.716 75.2259C121.246 74.3545 121.012 73.3423 121.012 72.1894ZM134.748 65.2918C134.252 65.2918 133.836 65.1376 133.501 64.8292C133.179 64.5075 133.019 64.112 133.019 63.6428C133.019 63.1735 133.179 62.7847 133.501 62.4764C133.836 62.1546 134.252 61.9938 134.748 61.9938C135.244 61.9938 135.653 62.1546 135.975 62.4764C136.31 62.7847 136.477 63.1735 136.477 63.6428C136.477 64.112 136.31 64.5075 135.975 64.8292C135.653 65.1376 135.244 65.2918 134.748 65.2918ZM136.136 66.619V77.7598H133.32V66.619H136.136ZM137.68 72.1492C137.68 71.023 137.902 70.0242 138.344 69.1528C138.8 68.2814 139.41 67.6111 140.174 67.1418C140.952 66.6726 141.816 66.438 142.768 66.438C143.599 66.438 144.323 66.6056 144.94 66.9407C145.57 67.2759 146.073 67.6982 146.448 68.2077V66.619H149.284V77.7598H146.448V76.1309C146.086 76.6537 145.583 77.0894 144.94 77.438C144.31 77.7732 143.579 77.9408 142.748 77.9408C141.81 77.9408 140.952 77.6994 140.174 77.2168C139.41 76.7342 138.8 76.0571 138.344 75.1857C137.902 74.3009 137.68 73.2887 137.68 72.1492ZM146.448 72.1894C146.448 71.5056 146.314 70.9225 146.046 70.4398C145.778 69.9438 145.416 69.5684 144.96 69.3137C144.504 69.0456 144.015 68.9115 143.492 68.9115C142.969 68.9115 142.487 69.0389 142.044 69.2936C141.602 69.5483 141.24 69.9237 140.958 70.4197C140.69 70.9024 140.556 71.4788 140.556 72.1492C140.556 72.8195 140.69 73.4094 140.958 73.9188C141.24 74.4149 141.602 74.7969 142.044 75.0651C142.5 75.3332 142.983 75.4673 143.492 75.4673C144.015 75.4673 144.504 75.3399 144.96 75.0852C145.416 74.817 145.778 74.4417 146.046 73.959C146.314 73.463 146.448 72.8731 146.448 72.1894ZM154.336 62.8786V77.7598H151.521V62.8786H154.336ZM157.852 77.9005C157.342 77.9005 156.92 77.7464 156.585 77.438C156.263 77.1163 156.102 76.7208 156.102 76.2515C156.102 75.7823 156.263 75.3935 156.585 75.0852C156.92 74.7634 157.342 74.6025 157.852 74.6025C158.348 74.6025 158.756 74.7634 159.078 75.0852C159.4 75.3935 159.561 75.7823 159.561 76.2515C159.561 76.7208 159.4 77.1163 159.078 77.438C158.756 77.7464 158.348 77.9005 157.852 77.9005ZM157.852 69.5751C157.342 69.5751 156.92 69.4209 156.585 69.1126C156.263 68.7908 156.102 68.3953 156.102 67.9261C156.102 67.4569 156.263 67.0681 156.585 66.7598C156.92 66.438 157.342 66.2771 157.852 66.2771C158.348 66.2771 158.756 66.438 159.078 66.7598C159.4 67.0681 159.561 67.4569 159.561 67.9261C159.561 68.3953 159.4 68.7908 159.078 69.1126C158.756 69.4209 158.348 69.5751 157.852 69.5751ZM41.5262 100.901C40.2123 100.901 39.0057 100.592 37.9064 99.9755C36.8071 99.3588 35.9357 98.5075 35.2922 97.4216C34.6486 96.3222 34.3269 95.0821 34.3269 93.7013C34.3269 92.3338 34.6486 91.1071 35.2922 90.0212C35.9357 88.9219 36.8071 88.0638 37.9064 87.4471C39.0057 86.8304 40.2123 86.5221 41.5262 86.5221C42.8534 86.5221 44.06 86.8304 45.1459 87.4471C46.2452 88.0638 47.11 88.9219 47.7401 90.0212C48.3836 91.1071 48.7053 92.3338 48.7053 93.7013C48.7053 95.0821 48.3836 96.3222 47.7401 97.4216C47.11 98.5075 46.2452 99.3588 45.1459 99.9755C44.0466 100.592 42.84 100.901 41.5262 100.901ZM41.5262 98.3868C42.3708 98.3868 43.1148 98.1991 43.7583 97.8237C44.4018 97.435 44.9046 96.8853 45.2666 96.1748C45.6285 95.4642 45.8095 94.6397 45.8095 93.7013C45.8095 92.7628 45.6285 91.945 45.2666 91.2479C44.9046 90.5373 44.4018 89.9944 43.7583 89.619C43.1148 89.2436 42.3708 89.0559 41.5262 89.0559C40.6816 89.0559 39.9308 89.2436 39.2739 89.619C38.6304 89.9944 38.1276 90.5373 37.7656 91.2479C37.4037 91.945 37.2227 92.7628 37.2227 93.7013C37.2227 94.6397 37.4037 95.4642 37.7656 96.1748C38.1276 96.8853 38.6304 97.435 39.2739 97.8237C39.9308 98.1991 40.6816 98.3868 41.5262 98.3868ZM53.1024 91.2278C53.4644 90.7183 53.9604 90.296 54.5906 89.9609C55.2341 89.6123 55.9647 89.438 56.7825 89.438C57.7344 89.438 58.5924 89.6726 59.3566 90.1418C60.1341 90.6111 60.7441 91.2814 61.1865 92.1528C61.6424 93.0108 61.8703 94.0096 61.8703 95.1492C61.8703 96.2887 61.6424 97.3009 61.1865 98.1857C60.7441 99.0571 60.1341 99.7342 59.3566 100.217C58.5924 100.699 57.7344 100.941 56.7825 100.941C55.9647 100.941 55.2408 100.773 54.6107 100.438C53.994 100.103 53.4912 99.6805 53.1024 99.1711V106.069H50.2871V89.619H53.1024V91.2278ZM58.9946 95.1492C58.9946 94.4788 58.8538 93.9024 58.5723 93.4197C58.3041 92.9237 57.9422 92.5483 57.4864 92.2936C57.0439 92.0389 56.5613 91.9115 56.0385 91.9115C55.529 91.9115 55.0464 92.0456 54.5906 92.3137C54.1481 92.5684 53.7862 92.9438 53.5046 93.4398C53.2365 93.9359 53.1024 94.5191 53.1024 95.1894C53.1024 95.8597 53.2365 96.4429 53.5046 96.9389C53.7862 97.435 54.1481 97.817 54.5906 98.0852C55.0464 98.3399 55.529 98.4673 56.0385 98.4673C56.5613 98.4673 57.0439 98.3332 57.4864 98.0651C57.9422 97.7969 58.3041 97.4149 58.5723 96.9188C58.8538 96.4228 58.9946 95.8329 58.9946 95.1492ZM66.2187 91.2278C66.5806 90.7183 67.0767 90.296 67.7068 89.9609C68.3503 89.6123 69.081 89.438 69.8987 89.438C70.8506 89.438 71.7086 89.6726 72.4728 90.1418C73.2504 90.6111 73.8604 91.2814 74.3028 92.1528C74.7586 93.0108 74.9865 94.0096 74.9865 95.1492C74.9865 96.2887 74.7586 97.3009 74.3028 98.1857C73.8604 99.0571 73.2504 99.7342 72.4728 100.217C71.7086 100.699 70.8506 100.941 69.8987 100.941C69.081 100.941 68.357 100.773 67.7269 100.438C67.1102 100.103 66.6075 99.6805 66.2187 99.1711V106.069H63.4033V89.619H66.2187V91.2278ZM72.1108 95.1492C72.1108 94.4788 71.97 93.9024 71.6885 93.4197C71.4204 92.9237 71.0584 92.5483 70.6026 92.2936C70.1602 92.0389 69.6775 91.9115 69.1547 91.9115C68.6452 91.9115 68.1626 92.0456 67.7068 92.3137C67.2644 92.5684 66.9024 92.9438 66.6209 93.4398C66.3527 93.9359 66.2187 94.5191 66.2187 95.1894C66.2187 95.8597 66.3527 96.4429 66.6209 96.9389C66.9024 97.435 67.2644 97.817 67.7068 98.0852C68.1626 98.3399 68.6452 98.4673 69.1547 98.4673C69.6775 98.4673 70.1602 98.3332 70.6026 98.0651C71.0584 97.7969 71.4204 97.4149 71.6885 96.9188C71.97 96.4228 72.1108 95.8329 72.1108 95.1492ZM86.8761 94.9481C86.8761 95.3503 86.8492 95.7122 86.7956 96.034H78.6512C78.7182 96.8384 78.9998 97.4685 79.4958 97.9243C79.9918 98.3801 80.6018 98.608 81.3258 98.608C82.3715 98.608 83.1155 98.1589 83.558 97.2607H86.5945C86.2728 98.3332 85.6561 99.218 84.7444 99.9152C83.8328 100.599 82.7133 100.941 81.3861 100.941C80.3136 100.941 79.3483 100.706 78.4903 100.237C77.6457 99.7543 76.9821 99.0773 76.4994 98.2058C76.0302 97.3344 75.7956 96.3289 75.7956 95.1894C75.7956 94.0364 76.0302 93.0242 76.4994 92.1528C76.9687 91.2814 77.6256 90.6111 78.4702 90.1418C79.3148 89.6726 80.2868 89.438 81.3861 89.438C82.4452 89.438 83.3904 89.6659 84.2216 90.1217C85.0662 90.5776 85.7164 91.2278 86.1722 92.0724C86.6414 92.9036 86.8761 93.8621 86.8761 94.9481ZM83.9601 94.1437C83.9467 93.4197 83.6853 92.8432 83.1759 92.4142C82.6664 91.9718 82.043 91.7506 81.3057 91.7506C80.6085 91.7506 80.0186 91.9651 79.536 92.3941C79.0668 92.8097 78.7785 93.3929 78.6713 94.1437H83.9601ZM94.5919 89.4581C95.9191 89.4581 96.9916 89.8804 97.8094 90.725C98.6272 91.5562 99.0361 92.7226 99.0361 94.2241V100.76H96.2208V94.6062C96.2208 93.7214 95.9996 93.0443 95.5572 92.5751C95.1147 92.0925 94.5115 91.8512 93.7473 91.8512C92.9697 91.8512 92.353 92.0925 91.8972 92.5751C91.4548 93.0443 91.2336 93.7214 91.2336 94.6062V100.76H88.4182V89.619H91.2336V91.0066C91.609 90.5239 92.0849 90.1485 92.6614 89.8804C93.2512 89.5989 93.8948 89.4581 94.5919 89.4581ZM107.475 89.4581C108.319 89.4581 109.07 89.6458 109.727 90.0212C110.384 90.3832 110.893 90.9261 111.255 91.6501C111.631 92.3606 111.819 93.2186 111.819 94.2241V100.76H109.003V94.6062C109.003 93.7214 108.782 93.0443 108.34 92.5751C107.897 92.0925 107.294 91.8512 106.53 91.8512C105.752 91.8512 105.135 92.0925 104.68 92.5751C104.237 93.0443 104.016 93.7214 104.016 94.6062V100.76H101.201V85.8786H104.016V91.0066C104.378 90.5239 104.861 90.1485 105.464 89.8804C106.067 89.5989 106.737 89.4581 107.475 89.4581ZM124.339 94.9481C124.339 95.3503 124.313 95.7122 124.259 96.034H116.115C116.182 96.8384 116.463 97.4685 116.959 97.9243C117.455 98.3801 118.065 98.608 118.789 98.608C119.835 98.608 120.579 98.1589 121.021 97.2607H124.058C123.736 98.3332 123.119 99.218 122.208 99.9152C121.296 100.599 120.177 100.941 118.85 100.941C117.777 100.941 116.812 100.706 115.954 100.237C115.109 99.7543 114.446 99.0773 113.963 98.2058C113.494 97.3344 113.259 96.3289 113.259 95.1894C113.259 94.0364 113.494 93.0242 113.963 92.1528C114.432 91.2814 115.089 90.6111 115.934 90.1418C116.778 89.6726 117.75 89.438 118.85 89.438C119.909 89.438 120.854 89.6659 121.685 90.1217C122.53 90.5776 123.18 91.2278 123.636 92.0724C124.105 92.9036 124.339 93.8621 124.339 94.9481ZM121.424 94.1437C121.41 93.4197 121.149 92.8432 120.639 92.4142C120.13 91.9718 119.506 91.7506 118.769 91.7506C118.072 91.7506 117.482 91.9651 116.999 92.3941C116.53 92.8097 116.242 93.3929 116.135 94.1437H121.424ZM127.309 88.2918C126.813 88.2918 126.398 88.1376 126.063 87.8292C125.741 87.5075 125.58 87.112 125.58 86.6428C125.58 86.1735 125.741 85.7847 126.063 85.4764C126.398 85.1546 126.813 84.9938 127.309 84.9938C127.805 84.9938 128.214 85.1546 128.536 85.4764C128.871 85.7847 129.039 86.1735 129.039 86.6428C129.039 87.112 128.871 87.5075 128.536 87.8292C128.214 88.1376 127.805 88.2918 127.309 88.2918ZM128.697 89.619V100.76H125.882V89.619H128.697ZM144.801 89.4581C146.169 89.4581 147.268 89.8804 148.099 90.725C148.944 91.5562 149.366 92.7226 149.366 94.2241V100.76H146.551V94.6062C146.551 93.7348 146.33 93.0712 145.887 92.6153C145.445 92.1461 144.841 91.9115 144.077 91.9115C143.313 91.9115 142.703 92.1461 142.247 92.6153C141.805 93.0712 141.584 93.7348 141.584 94.6062V100.76H138.768V94.6062C138.768 93.7348 138.547 93.0712 138.105 92.6153C137.662 92.1461 137.059 91.9115 136.295 91.9115C135.517 91.9115 134.901 92.1461 134.445 92.6153C134.002 93.0712 133.781 93.7348 133.781 94.6062V100.76H130.966V89.619H133.781V90.9663C134.143 90.4971 134.606 90.1284 135.169 89.8603C135.745 89.5922 136.375 89.4581 137.059 89.4581C137.93 89.4581 138.708 89.6458 139.392 90.0212C140.075 90.3832 140.605 90.906 140.98 91.5897C141.342 90.9462 141.865 90.4301 142.549 90.0413C143.246 89.6525 143.997 89.4581 144.801 89.4581ZM161.881 94.9481C161.881 95.3503 161.855 95.7122 161.801 96.034H153.657C153.724 96.8384 154.005 97.4685 154.501 97.9243C154.997 98.3801 155.607 98.608 156.331 98.608C157.377 98.608 158.121 98.1589 158.563 97.2607H161.6C161.278 98.3332 160.661 99.218 159.75 99.9152C158.838 100.599 157.719 100.941 156.392 100.941C155.319 100.941 154.354 100.706 153.496 100.237C152.651 99.7543 151.987 99.0773 151.505 98.2058C151.036 97.3344 150.801 96.3289 150.801 95.1894C150.801 94.0364 151.036 93.0242 151.505 92.1528C151.974 91.2814 152.631 90.6111 153.476 90.1418C154.32 89.6726 155.292 89.438 156.392 89.438C157.451 89.438 158.396 89.6659 159.227 90.1217C160.072 90.5776 160.722 91.2278 161.178 92.0724C161.647 92.9036 161.881 93.8621 161.881 94.9481ZM158.966 94.1437C158.952 93.4197 158.691 92.8432 158.181 92.4142C157.672 91.9718 157.048 91.7506 156.311 91.7506C155.614 91.7506 155.024 91.9651 154.541 92.3941C154.072 92.8097 153.784 93.3929 153.677 94.1437H158.966ZM166.239 91.3484C166.601 90.7585 167.07 90.296 167.647 89.9609C168.237 89.6257 168.907 89.4581 169.658 89.4581V92.4142H168.914C168.029 92.4142 167.358 92.622 166.903 93.0376C166.46 93.4532 166.239 94.1772 166.239 95.2095V100.76H163.424V89.619H166.239V91.3484ZM180.267 100.941C179.195 100.941 178.229 100.706 177.371 100.237C176.513 99.7543 175.836 99.0773 175.34 98.2058C174.858 97.3344 174.616 96.3289 174.616 95.1894C174.616 94.0498 174.864 93.0443 175.36 92.1729C175.87 91.3015 176.56 90.6312 177.432 90.162C178.303 89.6793 179.275 89.438 180.348 89.438C181.42 89.438 182.392 89.6793 183.263 90.162C184.135 90.6312 184.819 91.3015 185.315 92.1729C185.824 93.0443 186.079 94.0498 186.079 95.1894C186.079 96.3289 185.817 97.3344 185.294 98.2058C184.785 99.0773 184.088 99.7543 183.203 100.237C182.332 100.706 181.353 100.941 180.267 100.941ZM180.267 98.4874C180.777 98.4874 181.252 98.3667 181.695 98.1254C182.151 97.8707 182.513 97.4953 182.781 96.9993C183.049 96.5032 183.183 95.8999 183.183 95.1894C183.183 94.1303 182.901 93.3192 182.338 92.7561C181.789 92.1796 181.112 91.8914 180.307 91.8914C179.503 91.8914 178.826 92.1796 178.276 92.7561C177.74 93.3192 177.472 94.1303 177.472 95.1894C177.472 96.2485 177.733 97.0663 178.256 97.6428C178.792 98.2058 179.463 98.4874 180.267 98.4874ZM190.447 91.3484C190.808 90.7585 191.278 90.296 191.854 89.9609C192.444 89.6257 193.114 89.4581 193.865 89.4581V92.4142H193.121C192.236 92.4142 191.566 92.622 191.11 93.0376C190.668 93.4532 190.447 94.1772 190.447 95.2095V100.76H187.631V89.619H190.447V91.3484ZM207.491 93.5605C208.282 93.708 208.932 94.1035 209.442 94.747C209.951 95.3905 210.206 96.1278 210.206 96.959C210.206 97.7098 210.018 98.3734 209.643 98.9499C209.281 99.513 208.751 99.9554 208.054 100.277C207.357 100.599 206.532 100.76 205.581 100.76H199.528V86.7232H205.319C206.271 86.7232 207.089 86.8774 207.773 87.1857C208.47 87.4941 208.993 87.9231 209.341 88.4727C209.703 89.0224 209.884 89.6458 209.884 90.3429C209.884 91.1607 209.663 91.8445 209.22 92.3941C208.791 92.9438 208.215 93.3326 207.491 93.5605ZM202.343 92.5148H204.917C205.587 92.5148 206.103 92.3673 206.465 92.0724C206.827 91.764 207.008 91.3283 207.008 90.7652C207.008 90.2022 206.827 89.7665 206.465 89.4581C206.103 89.1498 205.587 88.9956 204.917 88.9956H202.343V92.5148ZM205.178 98.4673C205.862 98.4673 206.392 98.3064 206.767 97.9846C207.156 97.6629 207.35 97.2071 207.35 96.6172C207.35 96.0139 207.149 95.5446 206.747 95.2095C206.345 94.8609 205.802 94.6866 205.118 94.6866H202.343V98.4673H205.178ZM211.213 95.1492C211.213 94.023 211.434 93.0242 211.877 92.1528C212.332 91.2814 212.942 90.6111 213.707 90.1418C214.484 89.6726 215.349 89.438 216.301 89.438C217.132 89.438 217.856 89.6056 218.473 89.9407C219.103 90.2759 219.605 90.6982 219.981 91.2077V89.619H222.816V100.76H219.981V99.1309C219.619 99.6537 219.116 100.089 218.473 100.438C217.842 100.773 217.112 100.941 216.281 100.941C215.342 100.941 214.484 100.699 213.707 100.217C212.942 99.7342 212.332 99.0571 211.877 98.1857C211.434 97.3009 211.213 96.2887 211.213 95.1492ZM219.981 95.1894C219.981 94.5056 219.847 93.9225 219.579 93.4398C219.31 92.9438 218.948 92.5684 218.493 92.3137C218.037 92.0456 217.547 91.9115 217.025 91.9115C216.502 91.9115 216.019 92.0389 215.577 92.2936C215.134 92.5483 214.772 92.9237 214.491 93.4197C214.223 93.9024 214.089 94.4788 214.089 95.1492C214.089 95.8195 214.223 96.4094 214.491 96.9188C214.772 97.4149 215.134 97.7969 215.577 98.0651C216.033 98.3332 216.515 98.4673 217.025 98.4673C217.547 98.4673 218.037 98.3399 218.493 98.0852C218.948 97.817 219.31 97.4417 219.579 96.959C219.847 96.463 219.981 95.8731 219.981 95.1894ZM227.868 91.3484C228.23 90.7585 228.7 90.296 229.276 89.9609C229.866 89.6257 230.536 89.4581 231.287 89.4581V92.4142H230.543C229.658 92.4142 228.988 92.622 228.532 93.0376C228.09 93.4532 227.868 94.1772 227.868 95.2095V100.76H225.053V89.619H227.868V91.3484ZM235.486 91.2479C235.848 90.7116 236.344 90.2759 236.974 89.9407C237.618 89.6056 238.348 89.438 239.166 89.438C240.118 89.438 240.976 89.6726 241.74 90.1418C242.518 90.6111 243.128 91.2814 243.57 92.1528C244.026 93.0108 244.254 94.0096 244.254 95.1492C244.254 96.2887 244.026 97.3009 243.57 98.1857C243.128 99.0571 242.518 99.7342 241.74 100.217C240.976 100.699 240.118 100.941 239.166 100.941C238.335 100.941 237.604 100.78 236.974 100.458C236.357 100.123 235.861 99.694 235.486 99.1711V100.76H232.671V85.8786H235.486V91.2479ZM241.378 95.1492C241.378 94.4788 241.237 93.9024 240.956 93.4197C240.688 92.9237 240.326 92.5483 239.87 92.2936C239.427 92.0389 238.945 91.9115 238.422 91.9115C237.913 91.9115 237.43 92.0456 236.974 92.3137C236.532 92.5684 236.17 92.9438 235.888 93.4398C235.62 93.9359 235.486 94.5191 235.486 95.1894C235.486 95.8597 235.62 96.4429 235.888 96.9389C236.17 97.435 236.532 97.817 236.974 98.0852C237.43 98.3399 237.913 98.4673 238.422 98.4673C238.945 98.4673 239.427 98.3332 239.87 98.0651C240.326 97.7969 240.688 97.4149 240.956 96.9188C241.237 96.4228 241.378 95.8329 241.378 95.1492ZM247.215 88.2918C246.719 88.2918 246.303 88.1376 245.968 87.8292C245.646 87.5075 245.485 87.112 245.485 86.6428C245.485 86.1735 245.646 85.7847 245.968 85.4764C246.303 85.1546 246.719 84.9938 247.215 84.9938C247.711 84.9938 248.12 85.1546 248.441 85.4764C248.776 85.7847 248.944 86.1735 248.944 86.6428C248.944 87.112 248.776 87.5075 248.441 87.8292C248.12 88.1376 247.711 88.2918 247.215 88.2918ZM248.602 89.619V100.76H245.787V89.619H248.602ZM261.227 94.9481C261.227 95.3503 261.201 95.7122 261.147 96.034H253.003C253.07 96.8384 253.351 97.4685 253.847 97.9243C254.343 98.3801 254.953 98.608 255.677 98.608C256.723 98.608 257.467 98.1589 257.909 97.2607H260.946C260.624 98.3332 260.007 99.218 259.096 99.9152C258.184 100.599 257.065 100.941 255.738 100.941C254.665 100.941 253.7 100.706 252.842 100.237C251.997 99.7543 251.333 99.0773 250.851 98.2058C250.382 97.3344 250.147 96.3289 250.147 95.1894C250.147 94.0364 250.382 93.0242 250.851 92.1528C251.32 91.2814 251.977 90.6111 252.822 90.1418C253.666 89.6726 254.638 89.438 255.738 89.438C256.797 89.438 257.742 89.6659 258.573 90.1217C259.418 90.5776 260.068 91.2278 260.524 92.0724C260.993 92.9036 261.227 93.8621 261.227 94.9481ZM258.312 94.1437C258.298 93.4197 258.037 92.8432 257.527 92.4142C257.018 91.9718 256.394 91.7506 255.657 91.7506C254.96 91.7506 254.37 91.9651 253.887 92.3941C253.418 92.8097 253.13 93.3929 253.023 94.1437H258.312ZM266.691 86.2406C268.085 86.2406 269.205 86.6226 270.049 87.3868C270.907 88.1376 271.336 89.1766 271.336 90.5038C271.336 91.8177 270.914 92.8231 270.069 93.5203C269.225 94.204 268.105 94.5459 266.711 94.5459L266.631 96.0943H264.157L264.057 92.6757H264.962C266.128 92.6757 267.026 92.5215 267.656 92.2131C268.286 91.9048 268.601 91.3417 268.601 90.5239C268.601 89.934 268.427 89.4648 268.079 89.1162C267.743 88.7677 267.281 88.5934 266.691 88.5934C266.074 88.5934 265.592 88.761 265.243 89.0961C264.908 89.4313 264.74 89.8938 264.74 90.4837H262.086C262.072 89.6659 262.247 88.9353 262.609 88.2918C262.971 87.6482 263.5 87.1455 264.197 86.7835C264.908 86.4215 265.739 86.2406 266.691 86.2406ZM265.384 100.901C264.874 100.901 264.452 100.746 264.117 100.438C263.795 100.116 263.634 99.7208 263.634 99.2515C263.634 98.7823 263.795 98.3935 264.117 98.0852C264.452 97.7634 264.874 97.6025 265.384 97.6025C265.88 97.6025 266.289 97.7634 266.611 98.0852C266.932 98.3935 267.093 98.7823 267.093 99.2515C267.093 99.7208 266.932 100.116 266.611 100.438C266.289 100.746 265.88 100.901 265.384 100.901ZM276.999 86.2406C278.393 86.2406 279.513 86.6226 280.357 87.3868C281.215 88.1376 281.644 89.1766 281.644 90.5038C281.644 91.8177 281.222 92.8231 280.377 93.5203C279.533 94.204 278.413 94.5459 277.019 94.5459L276.939 96.0943H274.465L274.365 92.6757H275.27C276.436 92.6757 277.334 92.5215 277.964 92.2131C278.594 91.9048 278.909 91.3417 278.909 90.5239C278.909 89.934 278.735 89.4648 278.387 89.1162C278.051 88.7677 277.589 88.5934 276.999 88.5934C276.382 88.5934 275.9 88.761 275.551 89.0961C275.216 89.4313 275.048 89.8938 275.048 90.4837H272.394C272.38 89.6659 272.555 88.9353 272.917 88.2918C273.279 87.6482 273.808 87.1455 274.505 86.7835C275.216 86.4215 276.047 86.2406 276.999 86.2406ZM275.692 100.901C275.182 100.901 274.76 100.746 274.425 100.438C274.103 100.116 273.942 99.7208 273.942 99.2515C273.942 98.7823 274.103 98.3935 274.425 98.0852C274.76 97.7634 275.182 97.6025 275.692 97.6025C276.188 97.6025 276.597 97.7634 276.919 98.0852C277.24 98.3935 277.401 98.7823 277.401 99.2515C277.401 99.7208 277.24 100.116 276.919 100.438C276.597 100.746 276.188 100.901 275.692 100.901Z" fill="white"/>
<rect x="34.8799" y="313.902" width="253.885" height="42.7331" rx="21.3666" fill="#7FD7FF"/>
<path d="M114.733 336.537C114.733 335.501 114.964 334.576 115.427 333.761C115.9 332.937 116.538 332.299 117.342 331.846C118.157 331.384 119.067 331.152 120.072 331.152C121.249 331.152 122.279 331.454 123.164 332.057C124.049 332.66 124.667 333.495 125.019 334.561H122.591C122.35 334.058 122.008 333.681 121.565 333.43C121.133 333.178 120.63 333.053 120.057 333.053C119.444 333.053 118.896 333.198 118.413 333.49C117.941 333.772 117.569 334.174 117.297 334.697C117.036 335.219 116.905 335.833 116.905 336.537C116.905 337.23 117.036 337.844 117.297 338.377C117.569 338.9 117.941 339.307 118.413 339.598C118.896 339.88 119.444 340.021 120.057 340.021C120.63 340.021 121.133 339.895 121.565 339.644C122.008 339.382 122.35 339 122.591 338.497H125.019C124.667 339.573 124.049 340.413 123.164 341.016C122.289 341.609 121.259 341.906 120.072 341.906C119.067 341.906 118.157 341.68 117.342 341.227C116.538 340.765 115.9 340.126 115.427 339.312C114.964 338.497 114.733 337.572 114.733 336.537ZM131.016 333.339C131.649 333.339 132.212 333.48 132.705 333.761C133.198 334.033 133.58 334.44 133.851 334.983C134.133 335.516 134.273 336.16 134.273 336.914V341.815H132.162V337.2C132.162 336.537 131.996 336.029 131.664 335.677C131.332 335.315 130.88 335.134 130.307 335.134C129.724 335.134 129.261 335.315 128.919 335.677C128.587 336.029 128.422 336.537 128.422 337.2V341.815H126.31V330.655H128.422V334.501C128.693 334.139 129.055 333.857 129.507 333.656C129.96 333.445 130.463 333.339 131.016 333.339ZM135.226 337.607C135.226 336.763 135.392 336.014 135.723 335.36C136.065 334.707 136.523 334.204 137.096 333.852C137.679 333.5 138.328 333.324 139.041 333.324C139.665 333.324 140.208 333.45 140.67 333.701C141.143 333.953 141.52 334.269 141.801 334.651V333.46H143.928V341.815H141.801V340.594C141.53 340.986 141.153 341.313 140.67 341.574C140.198 341.825 139.65 341.951 139.026 341.951C138.323 341.951 137.679 341.77 137.096 341.408C136.523 341.046 136.065 340.538 135.723 339.885C135.392 339.221 135.226 338.462 135.226 337.607ZM141.801 337.638C141.801 337.125 141.701 336.687 141.5 336.325C141.299 335.953 141.027 335.672 140.685 335.481C140.344 335.28 139.977 335.179 139.584 335.179C139.192 335.179 138.83 335.275 138.498 335.466C138.167 335.657 137.895 335.938 137.684 336.31C137.483 336.672 137.382 337.105 137.382 337.607C137.382 338.11 137.483 338.553 137.684 338.935C137.895 339.307 138.167 339.593 138.498 339.794C138.84 339.996 139.202 340.096 139.584 340.096C139.977 340.096 140.344 340.001 140.685 339.809C141.027 339.608 141.299 339.327 141.5 338.965C141.701 338.593 141.801 338.15 141.801 337.638ZM150.108 333.339C151.103 333.339 151.908 333.656 152.521 334.289C153.134 334.913 153.441 335.788 153.441 336.914V341.815H151.329V337.2C151.329 336.537 151.164 336.029 150.832 335.677C150.5 335.315 150.047 335.134 149.474 335.134C148.891 335.134 148.429 335.315 148.087 335.677C147.755 336.029 147.589 336.537 147.589 337.2V341.815H145.478V333.46H147.589V334.501C147.871 334.139 148.228 333.857 148.66 333.656C149.102 333.445 149.585 333.339 150.108 333.339ZM158.209 333.324C158.832 333.324 159.38 333.45 159.853 333.701C160.326 333.942 160.698 334.259 160.969 334.651V333.46H163.096V341.876C163.096 342.65 162.94 343.339 162.628 343.942C162.316 344.555 161.849 345.038 161.225 345.39C160.602 345.752 159.848 345.933 158.963 345.933C157.777 345.933 156.801 345.656 156.037 345.103C155.283 344.55 154.856 343.796 154.755 342.841H156.852C156.962 343.223 157.198 343.525 157.56 343.746C157.932 343.977 158.38 344.093 158.903 344.093C159.516 344.093 160.014 343.907 160.396 343.535C160.778 343.173 160.969 342.62 160.969 341.876V340.579C160.698 340.971 160.321 341.298 159.838 341.559C159.365 341.82 158.822 341.951 158.209 341.951C157.505 341.951 156.862 341.77 156.278 341.408C155.695 341.046 155.233 340.538 154.891 339.885C154.559 339.221 154.393 338.462 154.393 337.607C154.393 336.763 154.559 336.014 154.891 335.36C155.233 334.707 155.69 334.204 156.263 333.852C156.847 333.5 157.495 333.324 158.209 333.324ZM160.969 337.638C160.969 337.125 160.869 336.687 160.667 336.325C160.466 335.953 160.195 335.672 159.853 335.481C159.511 335.28 159.144 335.179 158.752 335.179C158.36 335.179 157.998 335.275 157.666 335.466C157.334 335.657 157.063 335.938 156.852 336.31C156.65 336.672 156.55 337.105 156.55 337.607C156.55 338.11 156.65 338.553 156.852 338.935C157.063 339.307 157.334 339.593 157.666 339.794C158.008 339.996 158.37 340.096 158.752 340.096C159.144 340.096 159.511 340.001 159.853 339.809C160.195 339.608 160.466 339.327 160.667 338.965C160.869 338.593 160.969 338.15 160.969 337.638ZM172.412 337.457C172.412 337.758 172.392 338.03 172.352 338.271H166.244C166.294 338.874 166.505 339.347 166.877 339.689C167.249 340.031 167.707 340.202 168.25 340.202C169.034 340.202 169.592 339.865 169.924 339.191H172.201C171.96 339.996 171.498 340.659 170.814 341.182C170.13 341.695 169.29 341.951 168.295 341.951C167.491 341.951 166.767 341.775 166.123 341.423C165.49 341.061 164.992 340.554 164.63 339.9C164.278 339.246 164.102 338.492 164.102 337.638C164.102 336.773 164.278 336.014 164.63 335.36C164.982 334.707 165.475 334.204 166.108 333.852C166.742 333.5 167.471 333.324 168.295 333.324C169.089 333.324 169.798 333.495 170.422 333.837C171.055 334.179 171.543 334.666 171.885 335.3C172.237 335.923 172.412 336.642 172.412 337.457ZM170.226 336.853C170.216 336.31 170.019 335.878 169.637 335.556C169.255 335.224 168.788 335.059 168.235 335.059C167.712 335.059 167.269 335.219 166.907 335.541C166.556 335.853 166.339 336.29 166.259 336.853H170.226ZM185.979 331.288L182.117 341.815H179.553L175.692 331.288H177.955L180.851 339.659L183.731 331.288H185.979ZM190.442 341.951C189.638 341.951 188.914 341.775 188.27 341.423C187.627 341.061 187.119 340.554 186.747 339.9C186.385 339.246 186.204 338.492 186.204 337.638C186.204 336.783 186.39 336.029 186.762 335.375C187.144 334.722 187.662 334.219 188.315 333.867C188.969 333.505 189.698 333.324 190.502 333.324C191.307 333.324 192.036 333.505 192.689 333.867C193.343 334.219 193.856 334.722 194.228 335.375C194.61 336.029 194.801 336.783 194.801 337.638C194.801 338.492 194.605 339.246 194.213 339.9C193.83 340.554 193.308 341.061 192.644 341.423C191.99 341.775 191.256 341.951 190.442 341.951ZM190.442 340.111C190.824 340.111 191.181 340.021 191.513 339.84C191.855 339.649 192.126 339.367 192.327 338.995C192.528 338.623 192.629 338.171 192.629 337.638C192.629 336.843 192.418 336.235 191.995 335.813C191.583 335.38 191.075 335.164 190.472 335.164C189.869 335.164 189.361 335.38 188.949 335.813C188.547 336.235 188.346 336.843 188.346 337.638C188.346 338.432 188.542 339.045 188.934 339.478C189.336 339.9 189.839 340.111 190.442 340.111ZM198.295 335.194V339.236C198.295 339.518 198.361 339.724 198.491 339.855C198.632 339.975 198.863 340.036 199.185 340.036H200.165V341.815H198.838C197.058 341.815 196.169 340.951 196.169 339.221V335.194H195.173V333.46H196.169V331.394H198.295V333.46H200.165V335.194H198.295ZM208.939 337.457C208.939 337.758 208.919 338.03 208.878 338.271H202.77C202.82 338.874 203.031 339.347 203.404 339.689C203.776 340.031 204.233 340.202 204.776 340.202C205.56 340.202 206.118 339.865 206.45 339.191H208.728C208.486 339.996 208.024 340.659 207.34 341.182C206.656 341.695 205.817 341.951 204.821 341.951C204.017 341.951 203.293 341.775 202.649 341.423C202.016 341.061 201.518 340.554 201.156 339.9C200.804 339.246 200.628 338.492 200.628 337.638C200.628 336.773 200.804 336.014 201.156 335.36C201.508 334.707 202.001 334.204 202.634 333.852C203.268 333.5 203.997 333.324 204.821 333.324C205.616 333.324 206.324 333.495 206.948 333.837C207.581 334.179 208.069 334.666 208.411 335.3C208.763 335.923 208.939 336.642 208.939 337.457ZM206.752 336.853C206.742 336.31 206.546 335.878 206.164 335.556C205.781 335.224 205.314 335.059 204.761 335.059C204.238 335.059 203.796 335.219 203.434 335.541C203.082 335.853 202.866 336.29 202.785 336.853H206.752Z" fill="black"/>
<path d="M40.3648 147.044C40.9279 147.145 41.4055 147.442 41.7976 147.934C42.1898 148.427 42.3858 148.985 42.3858 149.608C42.3858 150.141 42.2451 150.624 41.9635 151.056C41.6921 151.479 41.2949 151.815 40.772 152.067C40.2492 152.308 39.6409 152.429 38.9471 152.429H34.7542V141.947H38.751C39.4649 141.947 40.0783 142.067 40.5911 142.309C41.1039 142.55 41.491 142.877 41.7524 143.289C42.0138 143.691 42.1445 144.144 42.1445 144.646C42.1445 145.25 41.9837 145.752 41.6619 146.154C41.3401 146.557 40.9078 146.853 40.3648 147.044ZM36.4736 146.351H38.6002C39.1633 146.351 39.6007 146.225 39.9124 145.973C40.2341 145.712 40.395 145.34 40.395 144.857C40.395 144.385 40.2341 144.018 39.9124 143.756C39.6007 143.485 39.1633 143.349 38.6002 143.349H36.4736V146.351ZM38.7963 151.026C39.3794 151.026 39.8369 150.885 40.1688 150.604C40.5006 150.322 40.6665 149.93 40.6665 149.427C40.6665 148.915 40.4905 148.507 40.1386 148.206C39.7867 147.904 39.3191 147.753 38.7359 147.753H36.4736V151.026H38.7963ZM43.1684 148.236C43.1684 147.401 43.3393 146.662 43.6812 146.019C44.0331 145.375 44.5057 144.878 45.0989 144.526C45.7022 144.164 46.3658 143.983 47.0898 143.983C47.7433 143.983 48.3114 144.113 48.794 144.375C49.2867 144.626 49.6789 144.943 49.9705 145.325V144.118H51.7049V152.429H49.9705V151.192C49.6789 151.584 49.2817 151.911 48.779 152.172C48.2762 152.434 47.7031 152.564 47.0596 152.564C46.3457 152.564 45.6921 152.383 45.0989 152.021C44.5057 151.649 44.0331 151.137 43.6812 150.483C43.3393 149.819 43.1684 149.07 43.1684 148.236ZM49.9705 148.266C49.9705 147.693 49.8498 147.195 49.6085 146.773C49.3772 146.351 49.0706 146.029 48.6885 145.808C48.3064 145.586 47.8941 145.476 47.4517 145.476C47.0093 145.476 46.5971 145.586 46.215 145.808C45.8329 146.019 45.5212 146.335 45.2799 146.758C45.0486 147.17 44.933 147.663 44.933 148.236C44.933 148.809 45.0486 149.312 45.2799 149.744C45.5212 150.176 45.8329 150.508 46.215 150.739C46.6071 150.961 47.0194 151.071 47.4517 151.071C47.8941 151.071 48.3064 150.961 48.6885 150.739C49.0706 150.518 49.3772 150.197 49.6085 149.774C49.8498 149.342 49.9705 148.839 49.9705 148.266ZM55.1698 145.325C55.4212 144.903 55.753 144.576 56.1653 144.345C56.5876 144.103 57.0853 143.983 57.6584 143.983V145.762H57.221C56.5474 145.762 56.0346 145.933 55.6826 146.275C55.3408 146.617 55.1698 147.21 55.1698 148.055V152.429H53.4505V144.118H55.1698V145.325ZM60.4455 145.355C60.7371 144.953 61.1342 144.626 61.637 144.375C62.1498 144.113 62.7179 143.983 63.3413 143.983C64.0753 143.983 64.7389 144.159 65.3321 144.511C65.9254 144.862 66.3929 145.365 66.7348 146.019C67.0766 146.662 67.2476 147.401 67.2476 148.236C67.2476 149.07 67.0766 149.819 66.7348 150.483C66.3929 151.137 65.9203 151.649 65.317 152.021C64.7238 152.383 64.0652 152.564 63.3413 152.564C62.6977 152.564 62.1246 152.439 61.6219 152.187C61.1292 151.936 60.7371 151.614 60.4455 151.222V152.429H58.7261V141.268H60.4455V145.355ZM65.498 148.236C65.498 147.663 65.3774 147.17 65.136 146.758C64.9048 146.335 64.5931 146.019 64.2009 145.808C63.8189 145.586 63.4066 145.476 62.9642 145.476C62.5318 145.476 62.1196 145.586 61.7275 145.808C61.3454 146.029 61.0337 146.351 60.7924 146.773C60.5611 147.195 60.4455 147.693 60.4455 148.266C60.4455 148.839 60.5611 149.342 60.7924 149.774C61.0337 150.197 61.3454 150.518 61.7275 150.739C62.1196 150.961 62.5318 151.071 62.9642 151.071C63.4066 151.071 63.8189 150.961 64.2009 150.739C64.5931 150.508 64.9048 150.176 65.136 149.744C65.3774 149.312 65.498 148.809 65.498 148.236ZM69.3098 143.017C68.9981 143.017 68.7367 142.912 68.5256 142.701C68.3144 142.489 68.2088 142.228 68.2088 141.916C68.2088 141.605 68.3144 141.343 68.5256 141.132C68.7367 140.921 68.9981 140.815 69.3098 140.815C69.6115 140.815 69.8679 140.921 70.079 141.132C70.2902 141.343 70.3958 141.605 70.3958 141.916C70.3958 142.228 70.2902 142.489 70.079 142.701C69.8679 142.912 69.6115 143.017 69.3098 143.017ZM70.1544 144.118V152.429H68.4351V144.118H70.1544ZM79.5156 148.07C79.5156 148.382 79.4955 148.663 79.4553 148.915H73.1056C73.1559 149.578 73.4022 150.111 73.8446 150.513C74.2871 150.915 74.83 151.117 75.4735 151.117C76.3986 151.117 77.0521 150.729 77.4342 149.955H79.2894C79.038 150.719 78.5805 151.348 77.9169 151.841C77.2633 152.323 76.4489 152.564 75.4735 152.564C74.6792 152.564 73.9653 152.388 73.3319 152.037C72.7085 151.675 72.2158 151.172 71.8538 150.528C71.5019 149.875 71.3259 149.121 71.3259 148.266C71.3259 147.411 71.4968 146.662 71.8387 146.019C72.1906 145.365 72.6783 144.862 73.3017 144.511C73.9351 144.159 74.6591 143.983 75.4735 143.983C76.2578 143.983 76.9566 144.154 77.57 144.495C78.1833 144.837 78.6609 145.32 79.0028 145.943C79.3447 146.557 79.5156 147.266 79.5156 148.07ZM77.7208 147.527C77.7107 146.894 77.4845 146.386 77.0421 146.004C76.5997 145.622 76.0517 145.431 75.3981 145.431C74.8049 145.431 74.2971 145.622 73.8748 146.004C73.4525 146.376 73.2011 146.883 73.1207 147.527H77.7208ZM91.6259 144.118V152.429H89.9066V151.448C89.6351 151.79 89.2781 152.062 88.8357 152.263C88.4034 152.454 87.9408 152.549 87.4482 152.549C86.7946 152.549 86.2064 152.414 85.6835 152.142C85.1707 151.871 84.7635 151.468 84.4619 150.936C84.1703 150.403 84.0245 149.759 84.0245 149.005V144.118H85.7288V148.749C85.7288 149.493 85.9148 150.066 86.2868 150.468C86.6588 150.86 87.1666 151.056 87.8101 151.056C88.4536 151.056 88.9614 150.86 89.3334 150.468C89.7155 150.066 89.9066 149.493 89.9066 148.749V144.118H91.6259ZM104.543 144.118L101.964 152.429H100.154L98.4795 146.29L96.8054 152.429H94.9955L92.4014 144.118H94.1509L95.8854 150.8L97.65 144.118H99.4448L101.134 150.77L102.853 144.118H104.543ZM112.841 144.118V152.429H111.121V151.448C110.85 151.79 110.493 152.062 110.051 152.263C109.618 152.454 109.156 152.549 108.663 152.549C108.009 152.549 107.421 152.414 106.898 152.142C106.386 151.871 105.978 151.468 105.677 150.936C105.385 150.403 105.239 149.759 105.239 149.005V144.118H106.944V148.749C106.944 149.493 107.13 150.066 107.502 150.468C107.874 150.86 108.381 151.056 109.025 151.056C109.669 151.056 110.176 150.86 110.548 150.468C110.93 150.066 111.121 149.493 111.121 148.749V144.118H112.841Z" fill="white"/>
<path d="M243.78 143.983C243.669 143.52 243.468 143.173 243.176 142.942C242.885 142.711 242.478 142.595 241.955 142.595C241.16 142.595 240.567 142.902 240.175 143.515C239.783 144.118 239.577 145.124 239.557 146.532C239.818 146.089 240.2 145.747 240.703 145.506C241.206 145.265 241.749 145.144 242.332 145.144C242.995 145.144 243.579 145.29 244.081 145.581C244.594 145.863 244.991 146.275 245.273 146.818C245.564 147.361 245.71 148.01 245.71 148.764C245.71 149.468 245.569 150.096 245.288 150.649C245.016 151.202 244.609 151.639 244.066 151.961C243.523 152.273 242.87 152.429 242.106 152.429C241.07 152.429 240.255 152.202 239.662 151.75C239.079 151.287 238.667 150.639 238.425 149.804C238.194 148.97 238.079 147.929 238.079 146.682C238.079 143.002 239.376 141.162 241.97 141.162C242.975 141.162 243.765 141.434 244.338 141.977C244.921 142.52 245.263 143.188 245.363 143.983H243.78ZM241.955 146.592C241.341 146.592 240.819 146.778 240.386 147.15C239.964 147.512 239.753 148.04 239.753 148.734C239.753 149.427 239.949 149.98 240.341 150.393C240.743 150.795 241.301 150.996 242.015 150.996C242.649 150.996 243.146 150.8 243.508 150.408C243.88 150.016 244.066 149.493 244.066 148.839C244.066 148.155 243.885 147.612 243.523 147.21C243.171 146.798 242.649 146.592 241.955 146.592ZM253.875 150.89L256.228 144.118H258.053L254.886 152.429H252.835L249.682 144.118H251.522L253.875 150.89ZM262.445 152.564C261.66 152.564 260.951 152.388 260.318 152.037C259.685 151.675 259.187 151.172 258.825 150.528C258.463 149.875 258.282 149.121 258.282 148.266C258.282 147.421 258.468 146.672 258.84 146.019C259.212 145.365 259.72 144.862 260.363 144.511C261.007 144.159 261.726 143.983 262.52 143.983C263.314 143.983 264.033 144.159 264.677 144.511C265.32 144.862 265.828 145.365 266.2 146.019C266.572 146.672 266.758 147.421 266.758 148.266C266.758 149.111 266.567 149.86 266.185 150.513C265.803 151.167 265.28 151.675 264.616 152.037C263.963 152.388 263.239 152.564 262.445 152.564ZM262.445 151.071C262.887 151.071 263.299 150.966 263.681 150.755C264.073 150.543 264.39 150.227 264.632 149.804C264.873 149.382 264.993 148.869 264.993 148.266C264.993 147.663 264.878 147.155 264.647 146.743C264.415 146.32 264.109 146.004 263.727 145.793C263.344 145.581 262.932 145.476 262.49 145.476C262.047 145.476 261.635 145.581 261.253 145.793C260.881 146.004 260.584 146.32 260.363 146.743C260.142 147.155 260.031 147.663 260.031 148.266C260.031 149.161 260.258 149.855 260.71 150.347C261.173 150.83 261.751 151.071 262.445 151.071ZM269.951 145.521V150.121C269.951 150.433 270.021 150.659 270.162 150.8C270.313 150.931 270.564 150.996 270.916 150.996H271.972V152.429H270.615C269.84 152.429 269.247 152.248 268.835 151.886C268.423 151.524 268.217 150.936 268.217 150.121V145.521H267.236V144.118H268.217V142.052H269.951V144.118H271.972V145.521H269.951ZM280.66 148.07C280.66 148.382 280.64 148.663 280.6 148.915H274.25C274.301 149.578 274.547 150.111 274.99 150.513C275.432 150.915 275.975 151.117 276.618 151.117C277.543 151.117 278.197 150.729 278.579 149.955H280.434C280.183 150.719 279.725 151.348 279.062 151.841C278.408 152.323 277.594 152.564 276.618 152.564C275.824 152.564 275.11 152.388 274.477 152.037C273.853 151.675 273.361 151.172 272.999 150.528C272.647 149.875 272.471 149.121 272.471 148.266C272.471 147.411 272.642 146.662 272.984 146.019C273.335 145.365 273.823 144.862 274.447 144.511C275.08 144.159 275.804 143.983 276.618 143.983C277.403 143.983 278.101 144.154 278.715 144.495C279.328 144.837 279.806 145.32 280.148 145.943C280.49 146.557 280.66 147.266 280.66 148.07ZM278.866 147.527C278.856 146.894 278.629 146.386 278.187 146.004C277.745 145.622 277.197 145.431 276.543 145.431C275.95 145.431 275.442 145.622 275.02 146.004C274.597 146.376 274.346 146.883 274.266 147.527H278.866ZM284.856 152.564C284.203 152.564 283.614 152.449 283.092 152.218C282.579 151.976 282.172 151.654 281.87 151.252C281.568 150.84 281.407 150.383 281.387 149.88H283.167C283.197 150.232 283.363 150.528 283.665 150.77C283.976 151.001 284.363 151.117 284.826 151.117C285.309 151.117 285.681 151.026 285.942 150.845C286.214 150.654 286.349 150.413 286.349 150.121C286.349 149.809 286.198 149.578 285.897 149.427C285.605 149.277 285.138 149.111 284.494 148.93C283.871 148.759 283.363 148.593 282.971 148.432C282.579 148.271 282.237 148.025 281.945 147.693C281.664 147.361 281.523 146.924 281.523 146.381C281.523 145.938 281.654 145.536 281.915 145.174C282.177 144.802 282.549 144.511 283.031 144.299C283.524 144.088 284.087 143.983 284.72 143.983C285.666 143.983 286.425 144.224 286.998 144.707C287.581 145.179 287.893 145.828 287.933 146.652H286.214C286.183 146.28 286.033 145.984 285.761 145.762C285.49 145.541 285.123 145.431 284.66 145.431C284.208 145.431 283.861 145.516 283.619 145.687C283.378 145.858 283.257 146.084 283.257 146.366C283.257 146.587 283.338 146.773 283.499 146.924C283.66 147.075 283.856 147.195 284.087 147.286C284.318 147.366 284.66 147.472 285.113 147.602C285.716 147.763 286.209 147.929 286.591 148.1C286.983 148.261 287.32 148.502 287.601 148.824C287.883 149.146 288.028 149.573 288.039 150.106C288.039 150.579 287.908 151.001 287.646 151.373C287.385 151.745 287.013 152.037 286.53 152.248C286.058 152.459 285.5 152.564 284.856 152.564Z" fill="white" fill-opacity="0.5"/>
<rect x="33.623" y="166.852" width="255.142" height="18.8528" rx="9.42642" fill="#383D48"/>
<rect x="33.623" y="166.852" width="101.805" height="18.8528" rx="9.42642" fill="url(#paint0_linear_1669_24900)"/>
<path d="M39.5353 226.687C38.56 226.687 37.6601 226.46 36.8356 226.008C36.0211 225.545 35.3726 224.907 34.89 224.092C34.4174 223.268 34.1811 222.343 34.1811 221.317C34.1811 220.292 34.4174 219.372 34.89 218.557C35.3726 217.743 36.0211 217.109 36.8356 216.657C37.6601 216.194 38.56 215.963 39.5353 215.963C40.5207 215.963 41.4206 216.194 42.235 216.657C43.0595 217.109 43.7081 217.743 44.1806 218.557C44.6532 219.372 44.8895 220.292 44.8895 221.317C44.8895 222.343 44.6532 223.268 44.1806 224.092C43.7081 224.907 43.0595 225.545 42.235 226.008C41.4206 226.46 40.5207 226.687 39.5353 226.687ZM39.5353 225.193C40.2291 225.193 40.8475 225.038 41.3904 224.726C41.9334 224.404 42.3557 223.952 42.6573 223.369C42.969 222.775 43.1249 222.092 43.1249 221.317C43.1249 220.543 42.969 219.864 42.6573 219.281C42.3557 218.698 41.9334 218.251 41.3904 217.939C40.8475 217.627 40.2291 217.471 39.5353 217.471C38.8415 217.471 38.2231 217.627 37.6802 217.939C37.1372 218.251 36.7099 218.698 36.3982 219.281C36.0965 219.864 35.9457 220.543 35.9457 221.317C35.9457 222.092 36.0965 222.775 36.3982 223.369C36.7099 223.952 37.1372 224.404 37.6802 224.726C38.2231 225.038 38.8415 225.193 39.5353 225.193ZM47.788 219.492C48.0796 219.11 48.4768 218.789 48.9795 218.527C49.4823 218.266 50.0504 218.135 50.6838 218.135C51.4078 218.135 52.0664 218.316 52.6596 218.678C53.2629 219.03 53.7355 219.528 54.0773 220.171C54.4192 220.815 54.5901 221.554 54.5901 222.388C54.5901 223.223 54.4192 223.972 54.0773 224.635C53.7355 225.289 53.2629 225.802 52.6596 226.174C52.0664 226.536 51.4078 226.717 50.6838 226.717C50.0504 226.717 49.4873 226.591 48.9946 226.34C48.5019 226.078 48.0997 225.757 47.788 225.374V230.533H46.0686V218.271H47.788V219.492ZM52.8406 222.388C52.8406 221.815 52.7199 221.322 52.4786 220.91C52.2473 220.488 51.9356 220.171 51.5435 219.96C51.1614 219.739 50.7492 219.628 50.3068 219.628C49.8744 219.628 49.4621 219.739 49.07 219.96C48.6879 220.181 48.3762 220.503 48.1349 220.925C47.9036 221.348 47.788 221.845 47.788 222.418C47.788 222.991 47.9036 223.494 48.1349 223.927C48.3762 224.349 48.6879 224.671 49.07 224.892C49.4621 225.113 49.8744 225.224 50.3068 225.224C50.7492 225.224 51.1614 225.113 51.5435 224.892C51.9356 224.661 52.2473 224.329 52.4786 223.896C52.7199 223.464 52.8406 222.961 52.8406 222.388ZM57.497 219.492C57.7886 219.11 58.1858 218.789 58.6885 218.527C59.1912 218.266 59.7593 218.135 60.3928 218.135C61.1167 218.135 61.7753 218.316 62.3686 218.678C62.9719 219.03 63.4444 219.528 63.7863 220.171C64.1282 220.815 64.2991 221.554 64.2991 222.388C64.2991 223.223 64.1282 223.972 63.7863 224.635C63.4444 225.289 62.9719 225.802 62.3686 226.174C61.7753 226.536 61.1167 226.717 60.3928 226.717C59.7593 226.717 59.1963 226.591 58.7036 226.34C58.2109 226.078 57.8087 225.757 57.497 225.374V230.533H55.7776V218.271H57.497V219.492ZM62.5496 222.388C62.5496 221.815 62.4289 221.322 62.1876 220.91C61.9563 220.488 61.6446 220.171 61.2525 219.96C60.8704 219.739 60.4581 219.628 60.0157 219.628C59.5834 219.628 59.1711 219.739 58.779 219.96C58.3969 220.181 58.0852 220.503 57.8439 220.925C57.6126 221.348 57.497 221.845 57.497 222.418C57.497 222.991 57.6126 223.494 57.8439 223.927C58.0852 224.349 58.3969 224.671 58.779 224.892C59.1711 225.113 59.5834 225.224 60.0157 225.224C60.4581 225.224 60.8704 225.113 61.2525 224.892C61.6446 224.661 61.9563 224.329 62.1876 223.896C62.4289 223.464 62.5496 222.961 62.5496 222.388ZM73.1031 222.222C73.1031 222.534 73.083 222.816 73.0428 223.067H66.6932C66.7435 223.731 66.9898 224.263 67.4322 224.666C67.8746 225.068 68.4176 225.269 69.0611 225.269C69.9861 225.269 70.6397 224.882 71.0218 224.108H72.8769C72.6255 224.872 72.168 225.5 71.5044 225.993C70.8509 226.475 70.0364 226.717 69.0611 226.717C68.2668 226.717 67.5529 226.541 66.9194 226.189C66.296 225.827 65.8033 225.324 65.4413 224.681C65.0894 224.027 64.9135 223.273 64.9135 222.418C64.9135 221.564 65.0844 220.815 65.4263 220.171C65.7782 219.518 66.2658 219.015 66.8892 218.663C67.5227 218.311 68.2467 218.135 69.0611 218.135C69.8454 218.135 70.5442 218.306 71.1575 218.648C71.7709 218.99 72.2485 219.472 72.5903 220.096C72.9322 220.709 73.1031 221.418 73.1031 222.222ZM71.3084 221.679C71.2983 221.046 71.0721 220.538 70.6297 220.156C70.1872 219.774 69.6392 219.583 68.9857 219.583C68.3924 219.583 67.8847 219.774 67.4624 220.156C67.0401 220.528 66.7887 221.036 66.7083 221.679H71.3084ZM78.4753 218.135C79.1288 218.135 79.712 218.271 80.2248 218.542C80.7477 218.814 81.1549 219.216 81.4465 219.749C81.7381 220.282 81.8839 220.925 81.8839 221.679V226.581H80.1796V221.936C80.1796 221.192 79.9935 220.624 79.6215 220.231C79.2495 219.829 78.7417 219.628 78.0982 219.628C77.4547 219.628 76.9419 219.829 76.5598 220.231C76.1878 220.624 76.0018 221.192 76.0018 221.936V226.581H74.2824V218.271H76.0018V219.221C76.2833 218.879 76.6403 218.613 77.0726 218.422C77.515 218.231 77.9826 218.135 78.4753 218.135ZM87.8627 218.135C88.4961 218.135 89.0592 218.271 89.5519 218.542C90.0546 218.814 90.4468 219.216 90.7283 219.749C91.0199 220.282 91.1657 220.925 91.1657 221.679V226.581H89.4614V221.936C89.4614 221.192 89.2754 220.624 88.9034 220.231C88.5313 219.829 88.0236 219.628 87.3801 219.628C86.7365 219.628 86.2237 219.829 85.8417 220.231C85.4696 220.624 85.2836 221.192 85.2836 221.936V226.581H83.5642V215.42H85.2836V219.236C85.5752 218.884 85.9422 218.613 86.3846 218.422C86.8371 218.231 87.3298 218.135 87.8627 218.135ZM100.463 222.222C100.463 222.534 100.443 222.816 100.402 223.067H94.0527C94.1029 223.731 94.3493 224.263 94.7917 224.666C95.2341 225.068 95.7771 225.269 96.4206 225.269C97.3456 225.269 97.9992 224.882 98.3813 224.108H100.236C99.985 224.872 99.5275 225.5 98.8639 225.993C98.2103 226.475 97.3959 226.717 96.4206 226.717C95.6262 226.717 94.9124 226.541 94.2789 226.189C93.6555 225.827 93.1628 225.324 92.8008 224.681C92.4489 224.027 92.273 223.273 92.273 222.418C92.273 221.564 92.4439 220.815 92.7858 220.171C93.1377 219.518 93.6253 219.015 94.2487 218.663C94.8822 218.311 95.6061 218.135 96.4206 218.135C97.2049 218.135 97.9037 218.306 98.517 218.648C99.1304 218.99 99.608 219.472 99.9498 220.096C100.292 220.709 100.463 221.418 100.463 222.222ZM98.6678 221.679C98.6578 221.046 98.4315 220.538 97.9891 220.156C97.5467 219.774 96.9987 219.583 96.3452 219.583C95.7519 219.583 95.2442 219.774 94.8219 220.156C94.3996 220.528 94.1482 221.036 94.0677 221.679H98.6678ZM102.517 217.17C102.205 217.17 101.944 217.064 101.732 216.853C101.521 216.642 101.416 216.38 101.416 216.069C101.416 215.757 101.521 215.496 101.732 215.284C101.944 215.073 102.205 214.968 102.517 214.968C102.818 214.968 103.075 215.073 103.286 215.284C103.497 215.496 103.603 215.757 103.603 216.069C103.603 216.38 103.497 216.642 103.286 216.853C103.075 217.064 102.818 217.17 102.517 217.17ZM103.361 218.271V226.581H101.642V218.271H103.361ZM115.166 218.135C115.819 218.135 116.402 218.271 116.915 218.542C117.438 218.814 117.845 219.216 118.137 219.749C118.439 220.282 118.589 220.925 118.589 221.679V226.581H116.885V221.936C116.885 221.192 116.699 220.624 116.327 220.231C115.955 219.829 115.447 219.628 114.804 219.628C114.16 219.628 113.647 219.829 113.265 220.231C112.893 220.624 112.707 221.192 112.707 221.936V226.581H111.003V221.936C111.003 221.192 110.817 220.624 110.445 220.231C110.073 219.829 109.565 219.628 108.922 219.628C108.278 219.628 107.765 219.829 107.383 220.231C107.011 220.624 106.825 221.192 106.825 221.936V226.581H105.106V218.271H106.825V219.221C107.107 218.879 107.464 218.613 107.896 218.422C108.328 218.231 108.791 218.135 109.284 218.135C109.947 218.135 110.54 218.276 111.063 218.557C111.586 218.839 111.988 219.246 112.27 219.779C112.521 219.276 112.913 218.879 113.446 218.587C113.979 218.286 114.552 218.135 115.166 218.135ZM127.881 222.222C127.881 222.534 127.861 222.816 127.821 223.067H121.471C121.521 223.731 121.768 224.263 122.21 224.666C122.653 225.068 123.195 225.269 123.839 225.269C124.764 225.269 125.418 224.882 125.8 224.108H127.655C127.403 224.872 126.946 225.5 126.282 225.993C125.629 226.475 124.814 226.717 123.839 226.717C123.045 226.717 122.331 226.541 121.697 226.189C121.074 225.827 120.581 225.324 120.219 224.681C119.867 224.027 119.691 223.273 119.691 222.418C119.691 221.564 119.862 220.815 120.204 220.171C120.556 219.518 121.044 219.015 121.667 218.663C122.301 218.311 123.025 218.135 123.839 218.135C124.623 218.135 125.322 218.306 125.935 218.648C126.549 218.99 127.026 219.472 127.368 220.096C127.71 220.709 127.881 221.418 127.881 222.222ZM126.086 221.679C126.076 221.046 125.85 220.538 125.408 220.156C124.965 219.774 124.417 219.583 123.764 219.583C123.17 219.583 122.663 219.774 122.24 220.156C121.818 220.528 121.567 221.036 121.486 221.679H126.086ZM130.78 219.477C131.031 219.055 131.363 218.728 131.775 218.497C132.197 218.256 132.695 218.135 133.268 218.135V219.915H132.831C132.157 219.915 131.644 220.086 131.292 220.427C130.951 220.769 130.78 221.363 130.78 222.207V226.581H129.06V218.271H130.78V219.477ZM138.299 217.713H140.471L143.94 221.136L140.471 224.56H138.299L141.783 221.136L138.299 217.713ZM146.818 226.687C146.506 226.687 146.245 226.581 146.034 226.37C145.823 226.159 145.717 225.897 145.717 225.586C145.717 225.274 145.823 225.012 146.034 224.801C146.245 224.59 146.506 224.485 146.818 224.485C147.12 224.485 147.376 224.59 147.587 224.801C147.798 225.012 147.904 225.274 147.904 225.586C147.904 225.897 147.798 226.159 147.587 226.37C147.376 226.581 147.12 226.687 146.818 226.687ZM146.818 220.352C146.506 220.352 146.245 220.246 146.034 220.035C145.823 219.824 145.717 219.563 145.717 219.251C145.717 218.939 145.823 218.678 146.034 218.467C146.245 218.256 146.506 218.15 146.818 218.15C147.12 218.15 147.376 218.256 147.587 218.467C147.798 218.678 147.904 218.939 147.904 219.251C147.904 219.563 147.798 219.824 147.587 220.035C147.376 220.246 147.12 220.352 146.818 220.352ZM148.886 229.386V229.22C149.922 228.155 150.711 226.913 151.254 225.495C151.797 224.077 152.069 222.609 152.069 221.091C152.069 219.512 151.777 217.979 151.194 216.491C150.611 215.003 149.741 213.726 148.585 212.66V212.494H150.364C151.47 213.48 152.305 214.731 152.868 216.25C153.441 217.768 153.728 219.382 153.728 221.091C153.728 222.76 153.461 224.324 152.928 225.782C152.405 227.24 151.651 228.441 150.666 229.386H148.886Z" fill="white"/>
<path d="M232.793 217.155V215.586H235.93V226.581H234.195V217.155H232.793ZM237.568 224.289V222.991L242.636 215.722H244.717V222.795H246.12V224.289H244.717V226.581H243.028V224.289H237.568ZM243.103 217.471L239.544 222.795H243.103V217.471ZM253.875 225.043L256.228 218.271H258.053L254.886 226.581H252.835L249.682 218.271H251.522L253.875 225.043ZM262.445 226.717C261.66 226.717 260.951 226.541 260.318 226.189C259.685 225.827 259.187 225.324 258.825 224.681C258.463 224.027 258.282 223.273 258.282 222.418C258.282 221.574 258.468 220.825 258.84 220.171C259.212 219.518 259.72 219.015 260.363 218.663C261.007 218.311 261.726 218.135 262.52 218.135C263.314 218.135 264.033 218.311 264.677 218.663C265.32 219.015 265.828 219.518 266.2 220.171C266.572 220.825 266.758 221.574 266.758 222.418C266.758 223.263 266.567 224.012 266.185 224.666C265.803 225.319 265.28 225.827 264.616 226.189C263.963 226.541 263.239 226.717 262.445 226.717ZM262.445 225.224C262.887 225.224 263.299 225.118 263.681 224.907C264.073 224.696 264.39 224.379 264.632 223.957C264.873 223.534 264.993 223.022 264.993 222.418C264.993 221.815 264.878 221.307 264.647 220.895C264.415 220.473 264.109 220.156 263.727 219.945C263.344 219.734 262.932 219.628 262.49 219.628C262.047 219.628 261.635 219.734 261.253 219.945C260.881 220.156 260.584 220.473 260.363 220.895C260.142 221.307 260.031 221.815 260.031 222.418C260.031 223.313 260.258 224.007 260.71 224.5C261.173 224.982 261.751 225.224 262.445 225.224ZM269.951 219.673V224.273C269.951 224.585 270.021 224.811 270.162 224.952C270.313 225.083 270.564 225.148 270.916 225.148H271.972V226.581H270.615C269.84 226.581 269.247 226.4 268.835 226.038C268.423 225.676 268.217 225.088 268.217 224.273V219.673H267.236V218.271H268.217V216.204H269.951V218.271H271.972V219.673H269.951ZM280.66 222.222C280.66 222.534 280.64 222.816 280.6 223.067H274.25C274.301 223.731 274.547 224.263 274.99 224.666C275.432 225.068 275.975 225.269 276.618 225.269C277.543 225.269 278.197 224.882 278.579 224.108H280.434C280.183 224.872 279.725 225.5 279.062 225.993C278.408 226.475 277.594 226.717 276.618 226.717C275.824 226.717 275.11 226.541 274.477 226.189C273.853 225.827 273.361 225.324 272.999 224.681C272.647 224.027 272.471 223.273 272.471 222.418C272.471 221.564 272.642 220.815 272.984 220.171C273.335 219.518 273.823 219.015 274.447 218.663C275.08 218.311 275.804 218.135 276.618 218.135C277.403 218.135 278.101 218.306 278.715 218.648C279.328 218.99 279.806 219.472 280.148 220.096C280.49 220.709 280.66 221.418 280.66 222.222ZM278.866 221.679C278.856 221.046 278.629 220.538 278.187 220.156C277.745 219.774 277.197 219.583 276.543 219.583C275.95 219.583 275.442 219.774 275.02 220.156C274.597 220.528 274.346 221.036 274.266 221.679H278.866ZM284.856 226.717C284.203 226.717 283.614 226.601 283.092 226.37C282.579 226.129 282.172 225.807 281.87 225.405C281.568 224.992 281.407 224.535 281.387 224.032H283.167C283.197 224.384 283.363 224.681 283.665 224.922C283.976 225.153 284.363 225.269 284.826 225.269C285.309 225.269 285.681 225.178 285.942 224.997C286.214 224.806 286.349 224.565 286.349 224.273C286.349 223.962 286.198 223.731 285.897 223.58C285.605 223.429 285.138 223.263 284.494 223.082C283.871 222.911 283.363 222.745 282.971 222.584C282.579 222.423 282.237 222.177 281.945 221.845C281.664 221.513 281.523 221.076 281.523 220.533C281.523 220.091 281.654 219.688 281.915 219.326C282.177 218.954 282.549 218.663 283.031 218.452C283.524 218.241 284.087 218.135 284.72 218.135C285.666 218.135 286.425 218.376 286.998 218.859C287.581 219.332 287.893 219.98 287.933 220.805H286.214C286.183 220.433 286.033 220.136 285.761 219.915C285.49 219.693 285.123 219.583 284.66 219.583C284.208 219.583 283.861 219.668 283.619 219.839C283.378 220.01 283.257 220.236 283.257 220.518C283.257 220.739 283.338 220.925 283.499 221.076C283.66 221.227 283.856 221.348 284.087 221.438C284.318 221.518 284.66 221.624 285.113 221.755C285.716 221.916 286.209 222.082 286.591 222.252C286.983 222.413 287.32 222.655 287.601 222.976C287.883 223.298 288.028 223.725 288.039 224.258C288.039 224.731 287.908 225.153 287.646 225.525C287.385 225.897 287.013 226.189 286.53 226.4C286.058 226.611 285.5 226.717 284.856 226.717Z" fill="white" fill-opacity="0.5"/>
<rect x="33.623" y="241.003" width="255.142" height="18.8528" rx="9.42642" fill="#383D48"/>
<rect x="33.623" y="241.003" width="208.638" height="18.8528" rx="9.42642" fill="url(#paint1_linear_1669_24900)"/>
<path d="M34.3922 283.296C35.6692 282.271 36.6697 281.431 37.3936 280.778C38.1176 280.114 38.7259 279.425 39.2186 278.711C39.7213 277.987 39.9727 277.279 39.9727 276.585C39.9727 275.931 39.8118 275.418 39.4901 275.046C39.1784 274.664 38.6706 274.473 37.9667 274.473C37.283 274.473 36.7501 274.69 36.368 275.122C35.996 275.544 35.7949 276.112 35.7647 276.826H34.4375C34.4777 275.7 34.8196 274.83 35.4631 274.217C36.1066 273.604 36.9361 273.297 37.9517 273.297C38.9873 273.297 39.8068 273.583 40.4101 274.157C41.0234 274.73 41.3301 275.519 41.3301 276.525C41.3301 277.359 41.0787 278.174 40.576 278.968C40.0833 279.752 39.5202 280.446 38.8868 281.049C38.2533 281.642 37.4439 282.336 36.4585 283.131H41.6468V284.277H34.3922V283.296ZM42.7206 278.832C42.7206 277.103 43.0021 275.755 43.5652 274.79C44.1283 273.815 45.1137 273.327 46.5213 273.327C47.919 273.327 48.8993 273.815 49.4624 274.79C50.0255 275.755 50.307 277.103 50.307 278.832C50.307 280.592 50.0255 281.959 49.4624 282.934C48.8993 283.91 47.919 284.397 46.5213 284.397C45.1137 284.397 44.1283 283.91 43.5652 282.934C43.0021 281.959 42.7206 280.592 42.7206 278.832ZM48.9496 278.832C48.9496 277.957 48.8893 277.218 48.7686 276.615C48.658 276.002 48.4217 275.509 48.0597 275.137C47.7078 274.765 47.195 274.579 46.5213 274.579C45.8376 274.579 45.3148 274.765 44.9528 275.137C44.6009 275.509 44.3646 276.002 44.2439 276.615C44.1333 277.218 44.078 277.957 44.078 278.832C44.078 279.737 44.1333 280.496 44.2439 281.11C44.3646 281.723 44.6009 282.216 44.9528 282.588C45.3148 282.96 45.8376 283.146 46.5213 283.146C47.195 283.146 47.7078 282.96 48.0597 282.588C48.4217 282.216 48.658 281.723 48.7686 281.11C48.8893 280.496 48.9496 279.737 48.9496 278.832ZM58.4896 283.131L61.0536 276.132H62.5166L59.2739 284.397H57.6752L54.4325 276.132H55.9105L58.4896 283.131ZM66.959 284.533C66.1848 284.533 65.4809 284.357 64.8475 284.005C64.2241 283.653 63.7314 283.156 63.3694 282.512C63.0175 281.859 62.8415 281.104 62.8415 280.25C62.8415 279.405 63.0225 278.661 63.3845 278.018C63.7565 277.364 64.2593 276.866 64.8927 276.525C65.5262 276.173 66.2351 275.997 67.0193 275.997C67.8036 275.997 68.5125 276.173 69.1459 276.525C69.7794 276.866 70.2771 277.359 70.6391 278.003C71.0111 278.646 71.1971 279.395 71.1971 280.25C71.1971 281.104 71.0061 281.859 70.624 282.512C70.252 283.156 69.7442 283.653 69.1007 284.005C68.4572 284.357 67.7433 284.533 66.959 284.533ZM66.959 283.327C67.4517 283.327 67.9142 283.211 68.3466 282.98C68.7789 282.748 69.1258 282.402 69.3872 281.939C69.6587 281.477 69.7945 280.913 69.7945 280.25C69.7945 279.586 69.6638 279.023 69.4023 278.561C69.1409 278.098 68.799 277.756 68.3767 277.535C67.9544 277.304 67.4969 277.188 67.0042 277.188C66.5015 277.188 66.039 277.304 65.6167 277.535C65.2044 277.756 64.8726 278.098 64.6212 278.561C64.3699 279.023 64.2442 279.586 64.2442 280.25C64.2442 280.924 64.3649 281.492 64.6062 281.954C64.8575 282.417 65.1893 282.764 65.6016 282.995C66.0138 283.216 66.4663 283.327 66.959 283.327ZM74.163 277.264V282.135C74.163 282.537 74.2485 282.824 74.4194 282.995C74.5904 283.156 74.887 283.236 75.3093 283.236H76.3198V284.397H75.083C74.3189 284.397 73.7458 284.222 73.3637 283.87C72.9816 283.518 72.7905 282.94 72.7905 282.135V277.264H71.7197V276.132H72.7905V274.051H74.163V276.132H76.3198V277.264H74.163ZM85.0111 279.948C85.0111 280.21 84.996 280.486 84.9658 280.778H78.3598C78.4101 281.592 78.6866 282.231 79.1893 282.693C79.7021 283.146 80.3205 283.372 81.0444 283.372C81.6377 283.372 82.1304 283.236 82.5225 282.965C82.9247 282.683 83.2062 282.311 83.3671 281.849H84.8452C84.624 282.643 84.1815 283.291 83.5179 283.794C82.8543 284.287 82.0298 284.533 81.0444 284.533C80.2602 284.533 79.5563 284.357 78.9329 284.005C78.3196 283.653 77.8369 283.156 77.485 282.512C77.1331 281.859 76.9571 281.104 76.9571 280.25C76.9571 279.395 77.1281 278.646 77.4699 278.003C77.8118 277.359 78.2894 276.866 78.9027 276.525C79.5262 276.173 80.24 275.997 81.0444 275.997C81.8287 275.997 82.5225 276.168 83.1258 276.509C83.7291 276.851 84.1916 277.324 84.5134 277.927C84.8452 278.52 85.0111 279.194 85.0111 279.948ZM83.5933 279.662C83.5933 279.139 83.4777 278.691 83.2464 278.319C83.0152 277.937 82.6985 277.651 82.2963 277.46C81.9041 277.259 81.4667 277.158 80.9841 277.158C80.2903 277.158 79.6971 277.379 79.2044 277.822C78.7218 278.264 78.4453 278.877 78.3749 279.662H83.5933ZM89.2359 284.533C88.6024 284.533 88.0343 284.428 87.5316 284.216C87.0288 283.995 86.6317 283.694 86.3401 283.312C86.0485 282.919 85.8876 282.472 85.8574 281.969H87.2752C87.3154 282.381 87.5064 282.718 87.8483 282.98C88.2002 283.241 88.6577 283.372 89.2208 283.372C89.7436 283.372 90.1559 283.256 90.4575 283.025C90.7592 282.794 90.91 282.502 90.91 282.15C90.91 281.788 90.7491 281.522 90.4274 281.351C90.1056 281.17 89.6079 280.994 88.9342 280.823C88.3209 280.662 87.8181 280.501 87.426 280.34C87.0439 280.169 86.7121 279.923 86.4306 279.601C86.1591 279.269 86.0234 278.837 86.0234 278.304C86.0234 277.882 86.149 277.495 86.4004 277.143C86.6518 276.791 87.0087 276.514 87.4712 276.313C87.9338 276.102 88.4617 275.997 89.0549 275.997C89.9699 275.997 90.7089 276.228 91.272 276.69C91.8351 277.153 92.1367 277.786 92.1769 278.591H90.8044C90.7743 278.158 90.5983 277.812 90.2766 277.55C89.9649 277.289 89.5425 277.158 89.0096 277.158C88.517 277.158 88.1248 277.264 87.8332 277.475C87.5416 277.686 87.3958 277.962 87.3958 278.304C87.3958 278.576 87.4813 278.802 87.6522 278.983C87.8332 279.154 88.0544 279.295 88.3159 279.405C88.5873 279.506 88.9594 279.621 89.4319 279.752C90.0252 279.913 90.5078 280.074 90.8798 280.235C91.2519 280.386 91.5686 280.617 91.83 280.929C92.1015 281.24 92.2423 281.647 92.2523 282.15C92.2523 282.603 92.1266 283.01 91.8753 283.372C91.6239 283.734 91.267 284.02 90.8044 284.232C90.352 284.433 89.8291 284.533 89.2359 284.533Z" fill="white" fill-opacity="0.5"/>
</g>
<defs>
<filter id="filter0_d_1669_24900" x="0.529149" y="0.529149" width="322.587" height="396.742" filterUnits="userSpaceOnUse" color-interpolation-filters="sRGB">
<feFlood flood-opacity="0" result="BackgroundImageFix"/>
<feColorMatrix in="SourceAlpha" type="matrix" values="0 0 0 0 0 0 0 0 0 0 0 0 0 0 0 0 0 0 127 0" result="hardAlpha"/>
<feOffset/>
<feGaussianBlur stdDeviation="5.23543"/>
<feComposite in2="hardAlpha" operator="out"/>
<feColorMatrix type="matrix" values="0 0 0 0 0 0 0 0 0 0 0 0 0 0 0 0 0 0 0.25 0"/>
<feBlend mode="normal" in2="BackgroundImageFix" result="effect1_dropShadow_1669_24900"/>
<feBlend mode="normal" in="SourceGraphic" in2="effect1_dropShadow_1669_24900" result="shape"/>
</filter>
<linearGradient id="paint0_linear_1669_24900" x1="37.1649" y1="167.197" x2="133.795" y2="169.595" gradientUnits="userSpaceOnUse">
<stop stop-color="#5575FF"/>
<stop offset="1" stop-color="#7FD7FF"/>
</linearGradient>
<linearGradient id="paint1_linear_1669_24900" x1="40.8817" y1="241.348" x2="238.524" y2="251.402" gradientUnits="userSpaceOnUse">
<stop stop-color="#5575FF"/>
<stop offset="1" stop-color="#7FD7FF"/>
</linearGradient>
</defs>
</svg>
