<svg width="493" height="166" viewBox="0 0 493 166" fill="none" xmlns="http://www.w3.org/2000/svg">
<rect x="53.5918" y="98.5234" width="439.408" height="67.3213" rx="13.947" fill="#262930" fill-opacity="0.9"/>
<rect x="73.6064" y="109.44" width="44.5776" height="44.5776" rx="4.54874" fill="#7FD7FF"/>
<path d="M111.378 116.982L111.346 116.038L110.398 116.002C110.398 116.002 110.347 116 110.249 116C108.87 116 101.656 116.334 95.0713 122.916C93.3082 124.678 91.7637 126.525 90.5132 128.333C85.7239 126.393 80 132.113 80 132.113C80 132.113 84.4012 130.28 87.578 134.084C87.3437 134.89 87.2386 135.588 87.2271 136.193L86.3609 137.059C86.1073 137.313 86.1277 137.746 86.3813 138L86.59 138.208L85.9927 138.806C85.8468 138.952 85.8029 139.175 85.9075 139.34C85.4854 139.259 84.8745 139.539 83.6224 140.004C82.0392 140.591 81.7474 141.927 81.7474 141.927C81.7474 141.927 82.2579 142.178 83.0058 142.253C82.0497 143.636 82.2689 145.103 82.2689 145.103C82.2689 145.103 83.7364 145.321 85.1188 144.366C85.1946 145.114 85.4451 145.624 85.4451 145.624C85.4451 145.624 86.7825 145.332 87.3693 143.748C87.8411 142.477 88.1225 141.867 88.0288 141.445C88.2009 141.531 88.4331 141.515 88.567 141.381L89.1648 140.783L89.4154 141.033C89.6701 141.287 90.0613 141.266 90.3144 141.012L91.1931 140.135C91.8296 140.122 92.5294 140.002 93.2789 139.785C97.1168 142.963 95.2732 147.381 95.2732 147.381C95.2732 147.381 101.01 141.646 99.0494 136.854C100.84 135.619 102.684 134.078 104.461 132.303C111.577 125.191 111.39 117.313 111.378 116.982ZM87.3249 142.393C86.999 143.272 86.2584 143.434 86.2584 143.434C86.2584 143.434 86.0665 143.037 86.0681 142.496C85.2689 143.131 84.3667 143.005 84.3667 143.005C84.3667 143.005 84.2417 142.103 84.8761 141.304C84.3342 141.305 83.9378 141.113 83.9378 141.113C83.9378 141.113 84.0999 140.373 84.9786 140.047C85.6543 139.796 85.9901 139.647 86.2234 139.681L87.6925 141.149C87.7255 141.382 87.5759 141.718 87.3249 142.393ZM91.0665 139.126C90.7339 139.126 90.4332 139.08 90.1492 139.009L88.35 137.21C87.6429 134.307 90.7009 128.721 95.7894 123.634C98.5483 120.876 101.436 119.267 103.907 118.327L109.052 123.472C108.112 125.942 106.503 128.828 103.743 131.585C99.143 136.184 94.1314 139.126 91.0665 139.126Z" fill="#181A1E"/>
<path d="M101.057 123.783C99.654 123.783 98.5186 124.92 98.5186 126.322C98.5175 127.723 99.6551 128.86 101.057 128.86C102.458 128.86 103.597 127.723 103.597 126.322C103.597 124.919 102.458 123.783 101.057 123.783ZM101.057 128.013C100.122 128.013 99.3648 127.255 99.3648 126.322C99.3648 125.387 100.122 124.629 101.057 124.629C101.991 124.629 102.75 125.387 102.75 126.322C102.75 127.255 101.991 128.013 101.057 128.013Z" fill="#181A1E"/>
<path d="M95.9797 128.859C94.5775 128.86 93.441 129.996 93.4404 131.398C93.441 132.8 94.5775 133.936 95.9792 133.936C97.3808 133.936 98.5179 132.8 98.5179 131.398C98.5184 129.997 97.3814 128.86 95.9797 128.859ZM95.9792 133.09C95.0456 133.09 94.2867 132.333 94.2867 131.398C94.2867 130.463 95.0435 129.706 95.9792 129.706C96.9148 129.706 97.6716 130.463 97.6716 131.399C97.6716 132.333 96.9148 133.09 95.9792 133.09Z" fill="#181A1E"/>
<path d="M103.488 119.529C103.721 119.529 103.911 119.339 103.911 119.106C103.911 118.872 103.721 118.683 103.488 118.683C103.254 118.683 103.064 118.872 103.064 119.106C103.064 119.339 103.254 119.529 103.488 119.529Z" fill="#181A1E"/>
<path d="M104.683 120.725C104.917 120.725 105.106 120.536 105.106 120.302C105.106 120.069 104.917 119.88 104.683 119.88C104.45 119.88 104.261 120.069 104.261 120.302C104.261 120.536 104.45 120.725 104.683 120.725Z" fill="#181A1E"/>
<path d="M105.881 121.923C106.115 121.923 106.304 121.734 106.304 121.5C106.304 121.266 106.115 121.076 105.881 121.076C105.647 121.076 105.457 121.266 105.457 121.5C105.457 121.734 105.647 121.923 105.881 121.923Z" fill="#181A1E"/>
<path d="M107.077 123.119C107.311 123.119 107.501 122.929 107.501 122.695C107.501 122.461 107.311 122.271 107.077 122.271C106.843 122.271 106.653 122.461 106.653 122.695C106.653 122.929 106.843 123.119 107.077 123.119Z" fill="#181A1E"/>
<path d="M108.575 123.593C108.408 123.427 108.142 123.428 107.976 123.593C107.81 123.757 107.81 124.026 107.976 124.191C108.141 124.356 108.408 124.356 108.575 124.191C108.741 124.026 108.74 123.758 108.575 123.593Z" fill="#181A1E"/>
<rect x="140" y="137" width="239" height="16" rx="8" fill="#3C4046"/>
<rect x="140" y="137" width="178" height="16" rx="8" fill="url(#paint0_linear_867_6913)"/>
<path d="M148.677 115.239L144.936 124H142.939L146.708 115.464H141.898V113.777H148.677V115.239ZM149.282 118.741C149.282 117.119 149.573 115.848 150.154 114.93C150.744 114.011 151.719 113.552 153.079 113.552C154.438 113.552 155.409 114.011 155.99 114.93C156.58 115.848 156.876 117.119 156.876 118.741C156.876 120.372 156.58 121.652 155.99 122.58C155.409 123.508 154.438 123.972 153.079 123.972C151.719 123.972 150.744 123.508 150.154 122.58C149.573 121.652 149.282 120.372 149.282 118.741ZM154.935 118.741C154.935 118.047 154.888 117.466 154.794 116.997C154.71 116.519 154.532 116.13 154.26 115.83C153.998 115.53 153.604 115.38 153.079 115.38C152.554 115.38 152.155 115.53 151.884 115.83C151.621 116.13 151.443 116.519 151.349 116.997C151.265 117.466 151.223 118.047 151.223 118.741C151.223 119.453 151.265 120.053 151.349 120.541C151.434 121.019 151.612 121.408 151.884 121.708C152.155 121.998 152.554 122.144 153.079 122.144C153.604 122.144 154.002 121.998 154.274 121.708C154.546 121.408 154.724 121.019 154.809 120.541C154.893 120.053 154.935 119.453 154.935 118.741ZM157.574 116.266C157.574 115.553 157.781 114.995 158.193 114.592C158.615 114.189 159.154 113.987 159.81 113.987C160.467 113.987 161.001 114.189 161.413 114.592C161.835 114.995 162.046 115.553 162.046 116.266C162.046 116.987 161.835 117.55 161.413 117.953C161.001 118.356 160.467 118.558 159.81 118.558C159.154 118.558 158.615 118.356 158.193 117.953C157.781 117.55 157.574 116.987 157.574 116.266ZM166.603 114.156L161.076 124H159.163L164.676 114.156H166.603ZM159.796 115.169C159.281 115.169 159.023 115.534 159.023 116.266C159.023 117.006 159.281 117.377 159.796 117.377C160.049 117.377 160.246 117.287 160.387 117.109C160.528 116.922 160.598 116.641 160.598 116.266C160.598 115.534 160.331 115.169 159.796 115.169ZM163.748 121.877C163.748 121.155 163.954 120.597 164.367 120.203C164.788 119.8 165.328 119.598 165.984 119.598C166.64 119.598 167.17 119.8 167.573 120.203C167.985 120.597 168.192 121.155 168.192 121.877C168.192 122.598 167.985 123.161 167.573 123.564C167.17 123.967 166.64 124.169 165.984 124.169C165.318 124.169 164.779 123.967 164.367 123.564C163.954 123.161 163.748 122.598 163.748 121.877ZM165.97 120.78C165.435 120.78 165.168 121.145 165.168 121.877C165.168 122.617 165.435 122.987 165.97 122.987C166.495 122.987 166.757 122.617 166.757 121.877C166.757 121.145 166.495 120.78 165.97 120.78Z" fill="white"/>
<path d="M321.177 115.239L317.436 124H315.439L319.208 115.464H314.399V113.777H321.177V115.239ZM327.281 110.683L323.484 126.545H321.557L325.354 110.683H327.281ZM327.809 115.562V113.748H331.198V124H329.173V115.562H327.809ZM332.569 118.741C332.569 117.119 332.859 115.848 333.441 114.93C334.031 114.011 335.006 113.552 336.366 113.552C337.725 113.552 338.695 114.011 339.277 114.93C339.867 115.848 340.162 117.119 340.162 118.741C340.162 120.372 339.867 121.652 339.277 122.58C338.695 123.508 337.725 123.972 336.366 123.972C335.006 123.972 334.031 123.508 333.441 122.58C332.859 121.652 332.569 120.372 332.569 118.741ZM338.222 118.741C338.222 118.047 338.175 117.466 338.081 116.997C337.997 116.519 337.819 116.13 337.547 115.83C337.284 115.53 336.891 115.38 336.366 115.38C335.841 115.38 335.442 115.53 335.17 115.83C334.908 116.13 334.73 116.519 334.636 116.997C334.552 117.466 334.509 118.047 334.509 118.741C334.509 119.453 334.552 120.053 334.636 120.541C334.72 121.019 334.898 121.408 335.17 121.708C335.442 121.998 335.841 122.144 336.366 122.144C336.891 122.144 337.289 121.998 337.561 121.708C337.833 121.408 338.011 121.019 338.095 120.541C338.18 120.053 338.222 119.453 338.222 118.741ZM346.38 117.827V121.595C346.38 121.858 346.441 122.05 346.563 122.172C346.694 122.284 346.91 122.341 347.21 122.341H348.124V124H346.887C345.227 124 344.398 123.194 344.398 121.581V117.827H343.469V116.209H344.398V114.283H346.38V116.209H348.124V117.827H346.38ZM348.46 120.077C348.46 119.289 348.615 118.591 348.924 117.981C349.243 117.372 349.67 116.903 350.204 116.575C350.748 116.247 351.352 116.083 352.018 116.083C352.599 116.083 353.106 116.2 353.537 116.434C353.977 116.669 354.329 116.964 354.591 117.32V116.209H356.574V124H354.591V122.861C354.338 123.227 353.987 123.531 353.537 123.775C353.096 124.009 352.585 124.127 352.004 124.127C351.348 124.127 350.748 123.958 350.204 123.62C349.67 123.283 349.243 122.809 348.924 122.2C348.615 121.581 348.46 120.873 348.46 120.077ZM354.591 120.105C354.591 119.627 354.498 119.219 354.31 118.881C354.123 118.534 353.87 118.272 353.551 118.094C353.232 117.906 352.89 117.812 352.524 117.812C352.159 117.812 351.821 117.902 351.512 118.08C351.202 118.258 350.949 118.52 350.752 118.867C350.565 119.205 350.471 119.608 350.471 120.077C350.471 120.545 350.565 120.958 350.752 121.314C350.949 121.661 351.202 121.928 351.512 122.116C351.831 122.303 352.168 122.397 352.524 122.397C352.89 122.397 353.232 122.308 353.551 122.13C353.87 121.942 354.123 121.68 354.31 121.342C354.498 120.995 354.591 120.583 354.591 120.105ZM360.905 124.127C360.267 124.127 359.695 124.014 359.189 123.789C358.683 123.555 358.28 123.241 357.98 122.847C357.689 122.453 357.53 122.017 357.501 121.539H359.484C359.522 121.839 359.667 122.087 359.92 122.284C360.183 122.481 360.506 122.58 360.891 122.58C361.266 122.58 361.556 122.505 361.762 122.355C361.978 122.205 362.086 122.012 362.086 121.778C362.086 121.525 361.955 121.337 361.692 121.216C361.439 121.084 361.031 120.944 360.469 120.794C359.887 120.653 359.409 120.508 359.034 120.358C358.669 120.208 358.35 119.978 358.078 119.669C357.816 119.359 357.684 118.942 357.684 118.417C357.684 117.986 357.806 117.592 358.05 117.236C358.303 116.88 358.659 116.598 359.119 116.392C359.587 116.186 360.136 116.083 360.764 116.083C361.692 116.083 362.433 116.317 362.986 116.786C363.539 117.245 363.844 117.869 363.9 118.656H362.016C361.987 118.347 361.856 118.103 361.622 117.925C361.397 117.737 361.092 117.644 360.708 117.644C360.351 117.644 360.075 117.709 359.878 117.841C359.691 117.972 359.597 118.155 359.597 118.389C359.597 118.652 359.728 118.853 359.991 118.994C360.253 119.125 360.661 119.261 361.214 119.402C361.776 119.542 362.241 119.687 362.606 119.837C362.972 119.987 363.286 120.222 363.548 120.541C363.82 120.85 363.961 121.262 363.97 121.778C363.97 122.228 363.844 122.631 363.591 122.987C363.347 123.344 362.991 123.625 362.522 123.831C362.062 124.028 361.523 124.127 360.905 124.127ZM369.625 124L366.981 120.681V124H365.013V113.594H366.981V119.514L369.597 116.209H372.156L368.725 120.119L372.184 124H369.625ZM375.632 124.127C374.995 124.127 374.423 124.014 373.917 123.789C373.41 123.555 373.007 123.241 372.707 122.847C372.417 122.453 372.257 122.017 372.229 121.539H374.212C374.25 121.839 374.395 122.087 374.648 122.284C374.91 122.481 375.234 122.58 375.618 122.58C375.993 122.58 376.284 122.505 376.49 122.355C376.706 122.205 376.814 122.012 376.814 121.778C376.814 121.525 376.682 121.337 376.42 121.216C376.167 121.084 375.759 120.944 375.196 120.794C374.615 120.653 374.137 120.508 373.762 120.358C373.396 120.208 373.078 119.978 372.806 119.669C372.543 119.359 372.412 118.942 372.412 118.417C372.412 117.986 372.534 117.592 372.778 117.236C373.031 116.88 373.387 116.598 373.846 116.392C374.315 116.186 374.864 116.083 375.492 116.083C376.42 116.083 377.16 116.317 377.714 116.786C378.267 117.245 378.571 117.869 378.628 118.656H376.743C376.715 118.347 376.584 118.103 376.35 117.925C376.125 117.737 375.82 117.644 375.435 117.644C375.079 117.644 374.803 117.709 374.606 117.841C374.418 117.972 374.325 118.155 374.325 118.389C374.325 118.652 374.456 118.853 374.718 118.994C374.981 119.125 375.389 119.261 375.942 119.402C376.504 119.542 376.968 119.687 377.334 119.837C377.7 119.987 378.014 120.222 378.276 120.541C378.548 120.85 378.689 121.262 378.698 121.778C378.698 122.228 378.571 122.631 378.318 122.987C378.075 123.344 377.718 123.625 377.25 123.831C376.79 124.028 376.251 124.127 375.632 124.127Z" fill="white" fill-opacity="0.5"/>
<path d="M426.552 131.812C424.264 125.869 416.121 125.548 418.088 116.909C418.233 116.268 417.549 115.773 416.995 116.108C411.707 119.225 407.904 125.475 411.095 133.663C411.357 134.333 410.57 134.959 410.002 134.522C407.365 132.526 407.088 129.656 407.322 127.602C407.409 126.845 406.418 126.48 405.996 127.107C405.005 128.622 404 131.07 404 134.755C404.554 142.914 411.444 145.419 413.921 145.74C417.461 146.191 421.293 145.536 424.046 143.015C427.076 140.204 428.183 135.717 426.552 131.812ZM413.032 139.14C415.13 138.63 416.208 137.115 416.5 135.775C416.98 133.692 415.101 131.652 416.368 128.36C416.849 131.084 421.132 132.789 421.132 135.76C421.249 139.446 417.257 142.608 413.032 139.14Z" fill="white"/>
<path d="M439.966 127.5V124.597H445.389V141H442.149V127.5H439.966ZM447.792 137.805V135.33L455.149 124.8H458.817V135.06H460.797V137.805H458.817V141H455.667V137.805H447.792ZM455.869 128.175L451.257 135.06H455.869V128.175Z" fill="white"/>
<rect width="360.26" height="67.3213" rx="13.947" fill="#262930" fill-opacity="0.9"/>
<rect x="20.0146" y="10.917" width="44.5776" height="44.5776" rx="4.54874" fill="#7FD7FF"/>
<rect x="85" y="38" width="250" height="16" rx="8" fill="#3C4046"/>
<rect x="85" y="38" width="209" height="16" rx="8" fill="url(#paint1_linear_867_6913)"/>
<path d="M88.8319 20.6218C87.903 20.1388 87.4385 19.391 87.4385 18.3785C87.4385 17.8769 87.5639 17.4218 87.8147 17.0131C88.0748 16.5951 88.4603 16.2653 88.9712 16.0238C89.4914 15.773 90.123 15.6476 90.8661 15.6476C91.6092 15.6476 92.2362 15.773 92.7471 16.0238C93.2673 16.2653 93.6528 16.5951 93.9036 17.0131C94.1637 17.4218 94.2937 17.8769 94.2937 18.3785C94.2937 18.8894 94.1683 19.3399 93.9175 19.73C93.6667 20.1109 93.3323 20.4081 92.9143 20.6218C93.4252 20.8447 93.8246 21.1698 94.1126 21.5971C94.4005 22.0244 94.5445 22.5306 94.5445 23.1158C94.5445 23.7475 94.3819 24.3001 94.0568 24.7739C93.741 25.2383 93.3044 25.5959 92.7471 25.8467C92.1898 26.0975 91.5628 26.2229 90.8661 26.2229C90.1695 26.2229 89.5425 26.0975 88.9851 25.8467C88.4371 25.5959 88.0005 25.2383 87.6754 24.7739C87.3596 24.3001 87.2017 23.7475 87.2017 23.1158C87.2017 22.5306 87.3457 22.0244 87.6336 21.5971C87.9216 21.1605 88.321 20.8354 88.8319 20.6218ZM92.3988 18.6572C92.3988 18.202 92.2594 17.8491 91.9808 17.5983C91.7114 17.3475 91.3399 17.2221 90.8661 17.2221C90.4017 17.2221 90.0301 17.3475 89.7515 17.5983C89.4821 17.8491 89.3474 18.2067 89.3474 18.6711C89.3474 19.0891 89.4867 19.4235 89.7654 19.6743C90.0534 19.9251 90.4203 20.0505 90.8661 20.0505C91.312 20.0505 91.6789 19.9251 91.9668 19.6743C92.2548 19.4142 92.3988 19.0752 92.3988 18.6572ZM90.8661 21.4717C90.3367 21.4717 89.9047 21.6064 89.5703 21.8758C89.2452 22.1451 89.0827 22.5306 89.0827 23.0322C89.0827 23.4967 89.2406 23.8775 89.5564 24.1747C89.8815 24.4627 90.3181 24.6067 90.8661 24.6067C91.4142 24.6067 91.8461 24.4581 92.1619 24.1608C92.4777 23.8636 92.6356 23.4874 92.6356 23.0322C92.6356 22.5399 92.4731 22.1591 92.148 21.8897C91.8229 21.611 91.3956 21.4717 90.8661 21.4717ZM95.5167 20.789C95.5167 19.182 95.8047 17.9234 96.3806 17.0131C96.9658 16.1028 97.9318 15.6476 99.2787 15.6476C100.626 15.6476 101.587 16.1028 102.163 17.0131C102.748 17.9234 103.041 19.182 103.041 20.789C103.041 22.4052 102.748 23.6731 102.163 24.5927C101.587 25.5123 100.626 25.9721 99.2787 25.9721C97.9318 25.9721 96.9658 25.5123 96.3806 24.5927C95.8047 23.6731 95.5167 22.4052 95.5167 20.789ZM101.118 20.789C101.118 20.1016 101.071 19.5257 100.979 19.0612C100.895 18.5875 100.718 18.202 100.449 17.9048C100.189 17.6075 99.7989 17.4589 99.2787 17.4589C98.7585 17.4589 98.3638 17.6075 98.0944 17.9048C97.8343 18.202 97.6578 18.5875 97.5649 19.0612C97.4813 19.5257 97.4395 20.1016 97.4395 20.789C97.4395 21.4949 97.4813 22.0894 97.5649 22.5724C97.6485 23.0462 97.825 23.4316 98.0944 23.7289C98.3638 24.0168 98.7585 24.1608 99.2787 24.1608C99.7989 24.1608 100.194 24.0168 100.463 23.7289C100.732 23.4316 100.909 23.0462 100.992 22.5724C101.076 22.0894 101.118 21.4949 101.118 20.789ZM103.733 18.3367C103.733 17.6308 103.937 17.0781 104.346 16.6787C104.764 16.2792 105.298 16.0795 105.948 16.0795C106.599 16.0795 107.128 16.2792 107.537 16.6787C107.955 17.0781 108.164 17.6308 108.164 18.3367C108.164 19.052 107.955 19.6093 107.537 20.0087C107.128 20.4081 106.599 20.6078 105.948 20.6078C105.298 20.6078 104.764 20.4081 104.346 20.0087C103.937 19.6093 103.733 19.052 103.733 18.3367ZM112.678 16.2467L107.202 26H105.307L110.769 16.2467H112.678ZM105.934 17.2499C105.424 17.2499 105.168 17.6122 105.168 18.3367C105.168 19.0705 105.424 19.4374 105.934 19.4374C106.185 19.4374 106.38 19.3492 106.52 19.1727C106.659 18.9869 106.729 18.7083 106.729 18.3367C106.729 17.6122 106.464 17.2499 105.934 17.2499ZM109.85 23.8961C109.85 23.1808 110.054 22.6282 110.463 22.238C110.881 21.8386 111.415 21.6389 112.065 21.6389C112.715 21.6389 113.24 21.8386 113.639 22.238C114.048 22.6282 114.253 23.1808 114.253 23.8961C114.253 24.6113 114.048 25.1687 113.639 25.5681C113.24 25.9675 112.715 26.1672 112.065 26.1672C111.406 26.1672 110.871 25.9675 110.463 25.5681C110.054 25.1687 109.85 24.6113 109.85 23.8961ZM112.051 22.8093C111.522 22.8093 111.257 23.1716 111.257 23.8961C111.257 24.6299 111.522 24.9968 112.051 24.9968C112.571 24.9968 112.831 24.6299 112.831 23.8961C112.831 23.1716 112.571 22.8093 112.051 22.8093Z" fill="white"/>
<path d="M57.0126 26.7237L55.623 26.2525L56.0147 24.5412C56.0743 24.2786 55.9085 24.015 55.6454 23.9554L55.0299 23.8157C54.7663 23.7566 54.4985 23.9219 54.4352 24.1834L54.0576 25.7227L48.2086 23.7404C48.1396 23.162 47.9649 22.7754 47.6898 22.6959L43.7023 21.2289L43.9695 20.1535C44.0166 19.9652 43.9052 19.7545 43.7221 19.687L38.6295 17.8151C38.4459 17.7476 38.2581 17.8481 38.2106 18.0369L37.9433 19.1117L29.2078 16.0201C28.3589 15.7748 27.1178 17.8031 26.4353 20.5495C25.7527 23.2974 25.8877 25.7237 26.7365 25.9685L37.1975 28.3158L37.1546 28.4884C37.0944 28.7316 37.2456 28.9738 37.4909 29.0255L39.0061 29.3488C39.0055 29.3665 39.0003 29.3838 39.0003 29.4026C39.0003 30.0852 39.2634 30.7003 39.6829 31.1746L33.722 47.3815H34.6728L40.9967 31.9879C40.9993 31.9885 41.0024 31.9895 41.005 31.9905L41.3026 47.3815H42.1222L42.4188 31.9874L48.7097 47.3815H49.6584L43.7221 31.1448C43.9005 30.9377 44.0428 30.7002 44.1536 30.4471L44.2734 30.4727C44.5187 30.525 44.7687 30.3687 44.8294 30.1254L44.8723 29.9529L45.8362 30.1584C46.1113 30.2374 46.4419 29.9968 46.7693 29.5334L55.7767 31.6992C56.2009 31.8216 56.8217 30.8075 57.1627 29.4345C57.5048 28.06 57.4373 26.8461 57.0126 26.7237ZM41.6902 31.3828C40.63 31.3828 39.7707 30.5475 39.7179 29.5004L43.4491 30.2965C43.1212 30.9387 42.4611 31.3828 41.6902 31.3828ZM46.7635 26.4266C46.4999 27.4894 46.1191 28.4277 45.7248 29.0653L29.5127 25.5882L29.5122 25.5877C30.0875 24.7765 30.6571 23.4475 31.0457 21.8837C31.4364 20.3099 31.5577 18.8449 31.4322 17.8324L47.0867 23.5793C47.1328 24.3445 47.0276 25.3628 46.7635 26.4266ZM56.3332 29.1929C56.1962 29.7436 56.0011 30.2337 55.7898 30.6228L47.3054 28.5852L47.3174 28.5355C47.5444 28.0234 47.7515 27.4199 47.9157 26.7593C48.08 26.0982 48.1804 25.4627 48.2206 24.8973L48.2316 24.8529L53.7558 26.7211C53.6381 26.8613 53.4519 26.9397 53.2647 26.9021L51.6088 26.572C51.3441 26.5187 51.058 26.6855 50.9733 26.9408L50.7223 27.6955C50.637 27.9518 50.7829 28.2081 51.0465 28.2677L54.4833 29.0297C54.7469 29.0888 55.0115 28.9215 55.0717 28.6589L55.3886 27.2734L56.5252 27.6573C56.5283 28.1092 56.4703 28.6411 56.3332 29.1929Z" fill="#181A1E"/>
<path d="M49.8419 27.1038C50.1009 27.1038 50.3108 26.8938 50.3108 26.6349C50.3108 26.3759 50.1009 26.166 49.8419 26.166C49.583 26.166 49.373 26.3759 49.373 26.6349C49.373 26.8938 49.583 27.1038 49.8419 27.1038Z" fill="#181A1E"/>
<path d="M270.916 20.6218C269.987 20.1388 269.522 19.391 269.522 18.3785C269.522 17.8769 269.648 17.4218 269.899 17.0131C270.159 16.5951 270.544 16.2653 271.055 16.0238C271.575 15.773 272.207 15.6476 272.95 15.6476C273.693 15.6476 274.32 15.773 274.831 16.0238C275.351 16.2653 275.737 16.5951 275.987 17.0131C276.247 17.4218 276.377 17.8769 276.377 18.3785C276.377 18.8894 276.252 19.3399 276.001 19.73C275.75 20.1109 275.416 20.4081 274.998 20.6218C275.509 20.8447 275.908 21.1698 276.196 21.5971C276.484 22.0244 276.628 22.5306 276.628 23.1158C276.628 23.7475 276.466 24.3001 276.141 24.7739C275.825 25.2383 275.388 25.5959 274.831 25.8467C274.274 26.0975 273.647 26.2229 272.95 26.2229C272.253 26.2229 271.626 26.0975 271.069 25.8467C270.521 25.5959 270.084 25.2383 269.759 24.7739C269.443 24.3001 269.285 23.7475 269.285 23.1158C269.285 22.5306 269.429 22.0244 269.717 21.5971C270.005 21.1605 270.405 20.8354 270.916 20.6218ZM274.483 18.6572C274.483 18.202 274.343 17.8491 274.065 17.5983C273.795 17.3475 273.424 17.2221 272.95 17.2221C272.485 17.2221 272.114 17.3475 271.835 17.5983C271.566 17.8491 271.431 18.2067 271.431 18.6711C271.431 19.0891 271.57 19.4235 271.849 19.6743C272.137 19.9251 272.504 20.0505 272.95 20.0505C273.396 20.0505 273.763 19.9251 274.051 19.6743C274.339 19.4142 274.483 19.0752 274.483 18.6572ZM272.95 21.4717C272.42 21.4717 271.988 21.6064 271.654 21.8758C271.329 22.1451 271.166 22.5306 271.166 23.0322C271.166 23.4967 271.324 23.8775 271.64 24.1747C271.965 24.4627 272.402 24.6067 272.95 24.6067C273.498 24.6067 273.93 24.4581 274.246 24.1608C274.561 23.8636 274.719 23.4874 274.719 23.0322C274.719 22.5399 274.557 22.1591 274.232 21.8897C273.907 21.611 273.479 21.4717 272.95 21.4717ZM283.048 12.8052L279.286 28.5219H277.378L281.14 12.8052H283.048ZM283.571 17.6401V15.8427H286.929V26H284.923V17.6401H283.571ZM288.288 20.789C288.288 19.182 288.576 17.9234 289.152 17.0131C289.737 16.1028 290.703 15.6476 292.05 15.6476C293.397 15.6476 294.358 16.1028 294.934 17.0131C295.519 17.9234 295.812 19.182 295.812 20.789C295.812 22.4052 295.519 23.6731 294.934 24.5927C294.358 25.5123 293.397 25.9721 292.05 25.9721C290.703 25.9721 289.737 25.5123 289.152 24.5927C288.576 23.6731 288.288 22.4052 288.288 20.789ZM293.889 20.789C293.889 20.1016 293.842 19.5257 293.75 19.0612C293.666 18.5875 293.489 18.202 293.22 17.9048C292.96 17.6075 292.57 17.4589 292.05 17.4589C291.53 17.4589 291.135 17.6075 290.865 17.9048C290.605 18.202 290.429 18.5875 290.336 19.0612C290.252 19.5257 290.211 20.1016 290.211 20.789C290.211 21.4949 290.252 22.0894 290.336 22.5724C290.42 23.0462 290.596 23.4316 290.865 23.7289C291.135 24.0168 291.53 24.1608 292.05 24.1608C292.57 24.1608 292.965 24.0168 293.234 23.7289C293.503 23.4316 293.68 23.0462 293.764 22.5724C293.847 22.0894 293.889 21.4949 293.889 20.789ZM301.972 19.8833V23.6174C301.972 23.8775 302.033 24.0679 302.154 24.1887C302.284 24.3001 302.497 24.3559 302.795 24.3559H303.7V26H302.474C300.83 26 300.008 25.2012 300.008 23.6035V19.8833H299.088V18.281H300.008V16.3721H301.972V18.281H303.7V19.8833H301.972ZM304.033 22.1126C304.033 21.3324 304.186 20.6403 304.493 20.0366C304.809 19.4328 305.231 18.9684 305.761 18.6433C306.3 18.3181 306.899 18.1556 307.558 18.1556C308.134 18.1556 308.636 18.2717 309.063 18.5039C309.5 18.7361 309.848 19.0287 310.108 19.3817V18.281H312.073V26H310.108V24.8714C309.857 25.2337 309.509 25.5356 309.063 25.7771C308.626 26.0093 308.12 26.1254 307.544 26.1254C306.894 26.1254 306.3 25.9582 305.761 25.6238C305.231 25.2894 304.809 24.8203 304.493 24.2165C304.186 23.6035 304.033 22.9022 304.033 22.1126ZM310.108 22.1405C310.108 21.6668 310.015 21.2627 309.829 20.9283C309.644 20.5846 309.393 20.3245 309.077 20.148C308.761 19.9623 308.422 19.8694 308.06 19.8694C307.698 19.8694 307.363 19.9576 307.057 20.1341C306.75 20.3106 306.499 20.5707 306.304 20.9144C306.118 21.2488 306.026 21.6482 306.026 22.1126C306.026 22.5771 306.118 22.9858 306.304 23.3388C306.499 23.6824 306.75 23.9472 307.057 24.1329C307.372 24.3187 307.707 24.4116 308.06 24.4116C308.422 24.4116 308.761 24.3234 309.077 24.1469C309.393 23.9611 309.644 23.701 309.829 23.3666C310.015 23.0229 310.108 22.6142 310.108 22.1405ZM316.363 26.1254C315.732 26.1254 315.165 26.0139 314.663 25.791C314.162 25.5588 313.762 25.2476 313.465 24.8575C313.177 24.4673 313.019 24.0354 312.991 23.5617H314.956C314.993 23.8589 315.137 24.1051 315.388 24.3001C315.648 24.4952 315.968 24.5927 316.349 24.5927C316.721 24.5927 317.009 24.5184 317.213 24.3698C317.427 24.2212 317.534 24.0308 317.534 23.7985C317.534 23.5478 317.403 23.362 317.143 23.2412C316.893 23.1112 316.489 22.9718 315.931 22.8232C315.355 22.6839 314.882 22.5399 314.51 22.3913C314.148 22.2427 313.832 22.0151 313.563 21.7086C313.302 21.402 313.172 20.9887 313.172 20.4685C313.172 20.0412 313.293 19.6511 313.535 19.2981C313.786 18.9451 314.138 18.6665 314.594 18.4621C315.058 18.2578 315.601 18.1556 316.224 18.1556C317.143 18.1556 317.877 18.3878 318.425 18.8522C318.973 19.3074 319.275 19.9251 319.331 20.7054H317.464C317.436 20.3988 317.306 20.1573 317.074 19.9808C316.851 19.7951 316.549 19.7022 316.168 19.7022C315.815 19.7022 315.541 19.7672 315.346 19.8972C315.16 20.0273 315.067 20.2084 315.067 20.4406C315.067 20.7007 315.197 20.9004 315.457 21.0398C315.718 21.1698 316.122 21.3045 316.67 21.4438C317.227 21.5832 317.687 21.7271 318.049 21.8758C318.411 22.0244 318.723 22.2566 318.983 22.5724C319.252 22.879 319.391 23.2877 319.401 23.7985C319.401 24.2444 319.275 24.6438 319.024 24.9968C318.783 25.3498 318.43 25.6284 317.965 25.8328C317.51 26.0279 316.976 26.1254 316.363 26.1254ZM325.003 26L322.384 22.7118V26H320.433V15.6894H322.384V21.5553L324.976 18.281H327.511L324.112 22.1544L327.539 26H325.003ZM330.956 26.1254C330.324 26.1254 329.757 26.0139 329.256 25.791C328.754 25.5588 328.355 25.2476 328.057 24.8575C327.769 24.4673 327.612 24.0354 327.584 23.5617H329.548C329.585 23.8589 329.729 24.1051 329.98 24.3001C330.24 24.4952 330.561 24.5927 330.942 24.5927C331.313 24.5927 331.601 24.5184 331.805 24.3698C332.019 24.2212 332.126 24.0308 332.126 23.7985C332.126 23.5478 331.996 23.362 331.736 23.2412C331.485 23.1112 331.081 22.9718 330.524 22.8232C329.948 22.6839 329.474 22.5399 329.102 22.3913C328.74 22.2427 328.424 22.0151 328.155 21.7086C327.895 21.402 327.765 20.9887 327.765 20.4685C327.765 20.0412 327.886 19.6511 328.127 19.2981C328.378 18.9451 328.731 18.6665 329.186 18.4621C329.65 18.2578 330.194 18.1556 330.816 18.1556C331.736 18.1556 332.47 18.3878 333.018 18.8522C333.566 19.3074 333.868 19.9251 333.923 20.7054H332.056C332.028 20.3988 331.898 20.1573 331.666 19.9808C331.443 19.7951 331.141 19.7022 330.76 19.7022C330.407 19.7022 330.133 19.7672 329.938 19.8972C329.753 20.0273 329.66 20.2084 329.66 20.4406C329.66 20.7007 329.79 20.9004 330.05 21.0398C330.31 21.1698 330.714 21.3045 331.262 21.4438C331.819 21.5832 332.279 21.7271 332.641 21.8758C333.004 22.0244 333.315 22.2566 333.575 22.5724C333.844 22.879 333.984 23.2877 333.993 23.7985C333.993 24.2444 333.868 24.6438 333.617 24.9968C333.375 25.3498 333.022 25.6284 332.558 25.8328C332.103 26.0279 331.569 26.1254 330.956 26.1254Z" fill="white" fill-opacity="0.5"/>
<defs>
<linearGradient id="paint0_linear_867_6913" x1="144.5" y1="145" x2="318" y2="145" gradientUnits="userSpaceOnUse">
<stop stop-color="#5575FF"/>
<stop offset="1" stop-color="#7FD7FF"/>
</linearGradient>
<linearGradient id="paint1_linear_867_6913" x1="85" y1="46" x2="294" y2="46" gradientUnits="userSpaceOnUse">
<stop stop-color="#5575FF"/>
<stop offset="1" stop-color="#7FD7FF"/>
</linearGradient>
</defs>
</svg>
