<svg width="430" height="430" viewBox="0 0 430 430" fill="none" xmlns="http://www.w3.org/2000/svg">
<g clip-path="url(#clip0_341_664)">
<rect width="430" height="430" fill="#181A1E"/>
<path fill-rule="evenodd" clip-rule="evenodd" d="M341.134 129.531L367.252 103.413V132.232C367.252 137.833 371.793 142.374 377.394 142.374H378.461C384.063 142.374 388.603 137.833 388.603 132.232V78.1419C388.603 72.5407 384.063 68 378.461 68H377.394C376.973 68 376.558 68.0257 376.15 68.0755C375.743 68.0257 375.328 68 374.907 68H322.952C317.351 68 312.81 72.5407 312.81 78.1419V79.2095C312.81 84.8107 317.351 89.3513 322.952 89.3513H351.2L324.963 115.589C321.003 119.549 321.231 125.725 325.473 129.382L326.281 130.08C330.524 133.737 337.173 133.491 341.134 129.531ZM299.677 277.546C309.735 260.532 315.507 240.684 315.507 219.488C315.507 156.388 264.354 105.235 201.253 105.235C138.153 105.235 87 156.388 87 219.488C87 282.589 138.153 333.742 201.253 333.742C225.317 333.742 247.644 326.302 266.058 313.598C266.518 314.072 267.002 314.53 267.509 314.971L282.846 328.303C292.526 336.718 307.195 335.692 315.609 326.012L317.514 323.821C325.929 314.141 324.903 299.472 315.223 291.058L299.886 277.726C299.817 277.665 299.747 277.605 299.677 277.546ZM272.242 234.625C265.452 267.414 236.406 292.059 201.604 292.059C178.696 292.059 158.282 281.38 145.068 264.73H178.47C183.882 264.73 188.27 260.343 188.27 254.93C188.27 249.518 183.882 245.13 178.47 245.13H133.994C131.067 237.283 129.466 228.788 129.466 219.921C129.466 213.502 130.305 207.28 131.878 201.356H202.643C208.056 201.356 212.443 196.969 212.443 191.556C212.443 186.144 208.056 181.756 202.643 181.756H140.377C153.121 161.355 175.778 147.783 201.604 147.783C239.837 147.783 271.122 177.525 273.586 215.134H231.117C225.734 215.134 221.371 219.497 221.371 224.88C221.371 230.262 225.734 234.625 231.117 234.625H272.242ZM197.935 215.134C192.553 215.134 188.189 219.497 188.189 224.88C188.189 230.262 192.553 234.625 197.935 234.625H207.473C212.856 234.625 217.219 230.262 217.219 224.88C217.219 219.497 212.856 215.134 207.473 215.134H197.935Z" fill="url(#paint0_linear_341_664)"/>
</g>
<defs>
<linearGradient id="paint0_linear_341_664" x1="113.065" y1="104.304" x2="307.618" y2="317.475" gradientUnits="userSpaceOnUse">
<stop stop-color="#485BFF"/>
<stop offset="1" stop-color="#85E7FF"/>
</linearGradient>
<clipPath id="clip0_341_664">
<rect width="430" height="430" rx="50" fill="white"/>
</clipPath>
</defs>
</svg>
