<svg width="98" height="87" viewBox="0 0 98 87" fill="none" xmlns="http://www.w3.org/2000/svg">
<path fill-rule="evenodd" clip-rule="evenodd" d="M73.3721 3.6423C73.3721 5.4623 74.8475 6.93771 76.6675 6.93771H85.8467L77.3214 15.463C76.0345 16.7499 76.1086 18.7566 77.4871 19.945L77.7498 20.1716C79.1282 21.36 81.2889 21.2802 82.5758 19.9932L91.0615 11.5075V20.8712C91.0615 22.6912 92.5369 24.1666 94.3569 24.1666H94.7038C96.5238 24.1666 97.9992 22.6912 97.9992 20.8712V3.29562C97.9992 1.47562 96.5238 0.000211239 94.7038 0.000211239H94.3569C94.2205 0.000211239 94.086 0.00850082 93.954 0.0246037C93.8213 0.00836208 93.6863 0 93.5492 0H76.6675C74.8475 0 73.3721 1.47541 73.3721 3.29541V3.6423ZM69.1051 68.0886C72.3734 62.5602 74.249 56.1107 74.249 49.2232C74.249 28.7199 57.6278 12.0987 37.1245 12.0987C16.6212 12.0987 0 28.7199 0 49.2232C0 69.7265 16.6212 86.3477 37.1245 86.3477C44.9434 86.3477 52.1978 83.9305 58.1811 79.8027C58.3307 79.9569 58.488 80.1061 58.6532 80.2496L63.6365 84.5815C66.7818 87.3158 71.5481 86.9825 74.2824 83.8371L74.9012 83.1252C77.6354 79.9798 77.3021 75.2135 74.1568 72.4793L69.1735 68.1474L69.1541 68.1306L69.1051 68.0886ZM60.1902 54.1422C57.9836 64.7962 48.5458 72.8037 37.2377 72.8037C29.7944 72.8037 23.1615 69.3343 18.8677 63.9244H29.7222C31.4808 63.9244 32.9065 62.4988 32.9065 60.7401C32.9065 58.9814 31.4808 57.5557 29.7222 57.5557H15.2692C14.3179 55.0057 13.7979 52.2455 13.7979 49.3638C13.7979 47.2786 14.0701 45.257 14.5811 43.3326H37.5769C39.3356 43.3326 40.7613 41.907 40.7613 40.1483C40.7613 38.3896 39.3356 36.9639 37.5769 36.9639H17.3425C21.4832 30.3344 28.8454 25.9239 37.2377 25.9239C49.6607 25.9239 59.8265 35.5883 60.6269 47.8088H46.828C45.0791 47.8088 43.6613 49.2266 43.6613 50.9755C43.6613 52.7244 45.0791 54.1422 46.828 54.1422H60.1902ZM36.0456 47.8087C34.2967 47.8087 32.8789 49.2264 32.8789 50.9754C32.8789 52.7243 34.2967 54.1421 36.0456 54.1421H39.1449C40.8938 54.1421 42.3116 52.7243 42.3116 50.9754C42.3116 49.2264 40.8939 47.8087 39.1449 47.8087H36.0456Z" fill="#181A1E"/>
</svg>
