<svg width="335" height="108" viewBox="0 0 335 108" fill="none" xmlns="http://www.w3.org/2000/svg">
<path d="M62.8336 78.4778L58.1798 71.4972C56.8672 71.7358 55.5347 71.8551 54.1823 71.8551C50.2445 71.8551 46.6249 70.9403 43.3235 69.1106C40.0221 67.2411 37.3969 64.6756 35.4479 61.414C33.5387 58.1126 32.584 54.3935 32.584 50.2569C32.584 46.1202 33.5387 42.421 35.4479 39.1594C37.3969 35.858 40.0221 33.2924 43.3235 31.4628C46.6249 29.6331 50.2445 28.7182 54.1823 28.7182C58.1599 28.7182 61.7795 29.6331 65.0412 31.4628C68.3426 33.2924 70.9479 35.858 72.8571 39.1594C74.7664 42.421 75.721 46.1202 75.721 50.2569C75.721 53.7174 75.0249 56.9193 73.6327 59.8627C72.2406 62.7664 70.3313 65.1927 67.905 67.1417L76.7949 78.4778H62.8336ZM44.5168 50.2569C44.5168 53.5582 45.372 56.1835 47.0823 58.1325C48.7927 60.0417 51.1594 60.9963 54.1823 60.9963C57.1655 60.9963 59.5123 60.0218 61.2227 58.0728C62.9728 56.1238 63.8479 53.5185 63.8479 50.2569C63.8479 46.9157 62.9728 44.2905 61.2227 42.3812C59.5123 40.4322 57.1655 39.4577 54.1823 39.4577C51.1594 39.4577 48.7927 40.4322 47.0823 42.3812C45.372 44.2905 44.5168 46.9157 44.5168 50.2569ZM115.414 37.9661V71.4375H103.66V66.6644C102.665 68.1759 101.293 69.4089 99.543 70.3636C97.7929 71.2784 95.7842 71.7358 93.5169 71.7358C89.6189 71.7358 86.5363 70.463 84.2691 67.9173C82.0416 65.3319 80.9279 61.8316 80.9279 57.4165V37.9661H92.5623V55.9249C92.5623 57.8342 93.0595 59.3456 94.0539 60.4594C95.0881 61.5333 96.4405 62.0703 98.1111 62.0703C99.8214 62.0703 101.174 61.5333 102.168 60.4594C103.163 59.3456 103.66 57.8342 103.66 55.9249V37.9661H115.414ZM154.179 54.314C154.179 55.2288 154.119 56.1437 154 57.0585H131.865C131.984 58.8882 132.481 60.2605 133.356 61.1753C134.271 62.0504 135.425 62.4879 136.817 62.4879C138.766 62.4879 140.158 61.6129 140.993 59.8627H153.463C152.946 62.1697 151.932 64.2381 150.42 66.0678C148.949 67.8577 147.079 69.2697 144.812 70.3039C142.545 71.3381 140.039 71.8551 137.294 71.8551C133.993 71.8551 131.049 71.1591 128.464 69.7669C125.918 68.3748 123.91 66.386 122.438 63.8005C121.006 61.2151 120.29 58.1722 120.29 54.672C120.29 51.1717 121.006 48.1487 122.438 45.6031C123.87 43.0176 125.859 41.0288 128.404 39.6367C130.99 38.2445 133.953 37.5485 137.294 37.5485C140.596 37.5485 143.519 38.2247 146.065 39.577C148.61 40.9294 150.599 42.8784 152.031 45.4241C153.463 47.93 154.179 50.8933 154.179 54.314ZM142.246 51.3905C142.246 49.9585 141.769 48.8448 140.814 48.0493C139.86 47.214 138.666 46.7963 137.235 46.7963C135.803 46.7963 134.629 47.1941 133.714 47.9896C132.8 48.7454 132.203 49.879 131.924 51.3905H142.246ZM173.355 71.8551C170.332 71.8551 167.627 71.3579 165.24 70.3636C162.894 69.3294 161.024 67.9372 159.632 66.1871C158.28 64.3972 157.524 62.3885 157.365 60.161H168.701C168.86 61.235 169.357 62.0703 170.193 62.6669C171.028 63.2636 172.062 63.5619 173.295 63.5619C174.25 63.5619 175.005 63.363 175.562 62.9652C176.119 62.5675 176.398 62.0504 176.398 61.414C176.398 60.5787 175.94 59.9622 175.025 59.5644C174.11 59.1666 172.599 58.7291 170.491 58.2518C168.104 57.7745 166.116 57.2375 164.524 56.6409C162.933 56.0442 161.541 55.0697 160.348 53.7174C159.195 52.365 158.618 50.5353 158.618 48.2283C158.618 46.2395 159.155 44.4496 160.229 42.8585C161.303 41.2277 162.874 39.935 164.942 38.9804C167.05 38.0258 169.576 37.5485 172.519 37.5485C176.895 37.5485 180.335 38.6224 182.841 40.7703C185.347 42.9182 186.799 45.7423 187.197 49.2426H176.636C176.437 48.1686 175.96 47.3532 175.204 46.7963C174.488 46.1997 173.514 45.9014 172.281 45.9014C171.326 45.9014 170.59 46.0804 170.073 46.4384C169.596 46.7963 169.357 47.2935 169.357 47.93C169.357 48.7255 169.815 49.342 170.73 49.7795C171.644 50.1773 173.116 50.5949 175.145 51.0325C177.571 51.5496 179.58 52.1263 181.171 52.7627C182.801 53.3991 184.214 54.4333 185.407 55.8652C186.64 57.2574 187.256 59.1666 187.256 61.593C187.256 63.542 186.68 65.2921 185.526 66.8434C184.412 68.3946 182.801 69.6277 180.693 70.5425C178.625 71.4176 176.179 71.8551 173.355 71.8551ZM212.885 61.4736V71.4375H207.813C199.261 71.4375 194.986 67.2014 194.986 58.7291V47.6913H190.869V37.9661H194.986V29.8518H206.739V37.9661H212.825V47.6913H206.739V58.9081C206.739 59.8229 206.938 60.4792 207.336 60.877C207.773 61.2748 208.489 61.4736 209.484 61.4736H212.885ZM224.285 34.8636C222.217 34.8636 220.546 34.3067 219.274 33.193C218.041 32.0395 217.424 30.6076 217.424 28.8972C217.424 27.1471 218.041 25.6953 219.274 24.5418C220.546 23.3883 222.217 22.8115 224.285 22.8115C226.314 22.8115 227.945 23.3883 229.178 24.5418C230.451 25.6953 231.087 27.1471 231.087 28.8972C231.087 30.6076 230.451 32.0395 229.178 33.193C227.945 34.3067 226.314 34.8636 224.285 34.8636ZM230.073 37.9661V71.4375H218.379V37.9661H230.073ZM254.941 47.6913H249.69V71.4375H237.937V47.6913H234.297V37.9661H237.937V37.6678C237.937 33.372 239.19 30.0905 241.695 27.8233C244.241 25.5163 247.881 24.3628 252.614 24.3628C253.569 24.3628 254.304 24.3826 254.821 24.4224V34.3863C254.503 34.3465 254.066 34.3266 253.509 34.3266C252.236 34.3266 251.301 34.6249 250.705 35.2216C250.108 35.7784 249.77 36.6933 249.69 37.9661H254.941V47.6913ZM295.287 37.9661L274.047 87.3677H261.339L269.334 70.0056L255.611 37.9661H268.618L275.658 56.9392L282.46 37.9661H295.287Z" fill="#181A1E"/>
<rect width="26.2313" height="8.01902" rx="4.00951" transform="matrix(0.71057 -0.703626 0.760528 0.649304 308.201 20.4512)" fill="#181A1E"/>
<rect x="326.854" width="8.05248" height="27.7754" rx="4.02624" fill="#181A1E"/>
<rect x="306.321" y="7.97363" width="7.97379" height="27.2442" rx="3.98689" transform="rotate(-90 306.321 7.97363)" fill="#181A1E"/>
<rect width="23.2877" height="5.69703" rx="2.84851" transform="matrix(0.883637 -0.468173 0.595605 0.803277 0 99.0215)" fill="#181A1E"/>
<rect x="9.04688" y="84.7979" width="6.03172" height="23.2031" rx="3.01586" fill="#181A1E"/>
<rect width="5.66343" height="24.069" rx="2.83171" transform="matrix(0.532515 -0.846421 0.883637 0.468173 0 93.2275)" fill="#181A1E"/>
</svg>
