<svg width="712" height="902" viewBox="0 0 712 902" fill="none" xmlns="http://www.w3.org/2000/svg">
<rect width="39.8399" height="9.78722" rx="4.89361" transform="matrix(0.881722 -0.471769 0.59183 0.806062 126 886.521)" fill="white" fill-opacity="0.8"/>
<rect x="141.444" y="862" width="10.2965" height="40" rx="5.14826" fill="white" fill-opacity="0.8"/>
<rect width="9.73627" height="41.1766" rx="4.86813" transform="matrix(0.528771 -0.848764 0.881722 0.471769 126 876.531)" fill="white" fill-opacity="0.8"/>
<rect width="25.4235" height="6.44635" rx="3.22318" transform="matrix(0.866592 -0.499017 0.563565 0.826072 18 707.552)" fill="white" fill-opacity="0.4"/>
<rect x="27.6865" y="691" width="6.45791" height="27" rx="3.22895" fill="white" fill-opacity="0.4"/>
<rect width="6.44523" height="26.2765" rx="3.22261" transform="matrix(0.500984 -0.865457 0.866592 0.499017 18 700.809)" fill="white" fill-opacity="0.4"/>
<path fill-rule="evenodd" clip-rule="evenodd" d="M644.207 131.247C644.207 128.902 646.109 127 648.454 127C650.8 127 652.702 128.902 652.702 131.247V135.867L656.886 133.628C658.852 132.576 661.515 133.18 662.835 134.978C664.154 136.775 663.63 139.085 661.664 140.137L656.132 143.096L662.124 146.302C664.079 147.349 664.714 149.723 663.541 151.606C662.368 153.488 659.832 154.166 657.876 153.12L652.702 150.351V155.753C652.702 158.098 650.8 160 648.454 160C646.109 160 644.207 158.098 644.207 155.753V149.477L639.803 151.833C637.837 152.885 635.174 152.281 633.854 150.484C632.535 148.686 633.059 146.377 635.025 145.325L639.166 143.109L635.006 140.883C633.05 139.837 632.416 137.462 633.589 135.579C634.761 133.697 637.298 133.019 639.253 134.065L644.207 136.716V131.247Z" fill="white" fill-opacity="0.65"/>
<path fill-rule="evenodd" clip-rule="evenodd" d="M82.4798 2.45589C82.4798 1.09954 83.5794 0 84.9357 0C86.2921 0 87.3916 1.09954 87.3916 2.45589V6.44872L89.5962 4.96511C90.8518 4.12008 92.4883 4.49468 93.2513 5.80179C94.0143 7.1089 93.615 8.85355 92.3593 9.69858L89.3757 11.7065L92.5926 13.8713C93.8602 14.7244 94.3381 16.5259 93.6599 17.8951C92.9817 19.2643 91.4043 19.6827 90.1367 18.8296L87.3916 16.9822V21.5441C87.3916 22.9005 86.2921 24 84.9357 24C83.5794 24 82.4798 22.9005 82.4798 21.5441V16.3472L80.1493 17.9156C78.8937 18.7606 77.2572 18.386 76.4942 17.0789C75.7312 15.7718 76.1305 14.0272 77.3862 13.1821L79.5656 11.7155L77.4079 10.2634C76.1402 9.41031 75.6624 7.6088 76.3406 6.23961C77.0187 4.87042 78.5961 4.45203 79.8637 5.30511L82.4798 7.06566V2.45589Z" fill="white" fill-opacity="0.6"/>
<rect width="25.4235" height="6.44635" rx="3.22318" transform="matrix(0.866592 -0.499017 0.563565 0.826072 687 288.551)" fill="white" fill-opacity="0.3"/>
<rect x="696.687" y="272" width="6.45791" height="27" rx="3.22895" fill="white" fill-opacity="0.3"/>
<rect width="6.44523" height="26.2765" rx="3.22261" transform="matrix(0.500984 -0.865457 0.866592 0.499017 687 281.809)" fill="white" fill-opacity="0.3"/>
</svg>
