<svg width="1297" height="258" viewBox="0 0 1297 258" fill="none" xmlns="http://www.w3.org/2000/svg">
<rect width="50.7958" height="12.4787" rx="6.23935" transform="matrix(0.881722 -0.471769 0.59183 0.806062 93 238.264)" fill="#282828" fill-opacity="0.5"/>
<rect x="112.692" y="207" width="13.1281" height="51" rx="6.56403" fill="#282828" fill-opacity="0.5"/>
<rect width="12.4137" height="52.5001" rx="6.20687" transform="matrix(0.528771 -0.848764 0.881722 0.471769 93 225.528)" fill="#282828" fill-opacity="0.5"/>
<path fill-rule="evenodd" clip-rule="evenodd" d="M11.8795 4.50256C11.8795 2.01587 13.8954 0 16.3821 0C18.8688 0 20.8846 2.01587 20.8846 4.50256V9.40019L25.321 7.0265C27.4051 5.91138 30.2287 6.55194 31.6276 8.45722C33.0265 10.3625 32.471 12.811 30.3869 13.9262L24.5233 17.0635L30.874 20.4615C32.9473 21.5708 33.62 24.088 32.3767 26.0838C31.1333 28.0795 28.4447 28.7982 26.3714 27.6889L20.8846 24.7531V30.4806C20.8846 32.9673 18.8688 34.9832 16.3821 34.9832C13.8954 34.9832 11.8795 32.9673 11.8795 30.4806V23.8286L7.21221 26.3259C5.12809 27.441 2.30454 26.8004 0.905631 24.8951C-0.493276 22.9899 0.0622015 20.5413 2.14632 19.4262L6.53756 17.0767L2.12668 14.7166C0.0534031 13.6073 -0.619381 11.0901 0.623967 9.09433C1.86732 7.09856 4.55597 6.37994 6.62924 7.48925L11.8795 10.2984V4.50256Z" fill="#282828" fill-opacity="0.5"/>
<path fill-rule="evenodd" clip-rule="evenodd" d="M1255.84 40.6573C1255.84 35.876 1259.72 32 1264.5 32C1269.28 32 1273.16 35.876 1273.16 40.6573V50.0723L1281.69 45.5098C1285.69 43.3657 1291.12 44.5973 1293.81 48.2607C1296.5 51.9241 1295.43 56.6319 1291.43 58.776L1280.15 64.8092L1292.36 71.3434C1296.35 73.4763 1297.64 78.3162 1295.25 82.1536C1292.86 85.9909 1287.69 87.3726 1283.71 85.2397L1273.16 79.5965V90.6063C1273.16 95.3875 1269.28 99.2635 1264.5 99.2635C1259.72 99.2635 1255.84 95.3875 1255.84 90.6063V77.8144L1246.87 82.6174C1242.86 84.7615 1237.43 83.5299 1234.74 79.8665C1232.05 76.2031 1233.12 71.4953 1237.13 69.3512L1245.57 64.8344L1237.09 60.2975C1233.1 58.1645 1231.81 53.3247 1234.2 49.4873C1236.59 45.6499 1241.76 44.2682 1245.75 46.4011L1255.84 51.8039V40.6573Z" fill="#282828" fill-opacity="0.5"/>
</svg>
