<svg width="623" height="727" viewBox="0 0 623 727" fill="none" xmlns="http://www.w3.org/2000/svg">
<rect width="39.8399" height="9.78722" rx="4.89361" transform="matrix(0.881722 -0.471769 0.59183 0.806062 543 706.521)" fill="#7FD7FF" fill-opacity="0.5"/>
<rect x="558.444" y="682" width="10.2965" height="40" rx="5.14826" fill="#7FD7FF" fill-opacity="0.5"/>
<rect width="9.73627" height="41.1766" rx="4.86813" transform="matrix(0.528771 -0.848764 0.881722 0.471769 543 696.531)" fill="#7FD7FF" fill-opacity="0.5"/>
<rect width="19.6578" height="4.82922" rx="2.41461" transform="matrix(0.881722 -0.471769 0.59183 0.806062 600 615.099)" fill="#7FD7FF" fill-opacity="0.5"/>
<rect x="607.62" y="603" width="5.08052" height="19.7368" rx="2.54026" fill="#7FD7FF" fill-opacity="0.5"/>
<rect width="4.80408" height="20.3174" rx="2.40204" transform="matrix(0.528771 -0.848764 0.881722 0.471769 600 610.17)" fill="#7FD7FF" fill-opacity="0.5"/>
<path fill-rule="evenodd" clip-rule="evenodd" d="M8.48942 283.218C8.48942 281.441 9.93001 280 11.7071 280C13.4841 280 14.9247 281.441 14.9247 283.218V286.718L18.0951 285.021C19.5845 284.224 21.6023 284.682 22.602 286.044C23.6017 287.405 23.2047 289.155 21.7154 289.952L17.5243 292.194L22.0634 294.623C23.5451 295.416 24.0259 297.215 23.1373 298.641C22.2488 300.067 20.3274 300.581 18.8458 299.788L14.9247 297.69V301.782C14.9247 303.559 13.4841 305 11.7071 305C9.93001 305 8.48942 303.559 8.48942 301.782V297.029L5.15406 298.813C3.66469 299.61 1.64689 299.152 0.64719 297.791C-0.352511 296.429 0.0444506 294.679 1.53383 293.882L4.67118 292.204L1.51979 290.518C0.038166 289.725 -0.442629 287.926 0.445905 286.5C1.33444 285.074 3.25583 284.56 4.73745 285.353L8.48942 287.36V283.218Z" fill="#7FD7FF" fill-opacity="0.3"/>
<path fill-rule="evenodd" clip-rule="evenodd" d="M550.207 4.24731C550.207 1.90159 552.109 0 554.455 0C556.8 0 558.702 1.90159 558.702 4.24731V8.86661L562.886 6.62804C564.852 5.57614 567.515 6.18038 568.835 7.97766C570.154 9.77494 569.63 12.0847 567.664 13.1366L562.132 16.0965L568.124 19.3022C570.079 20.3487 570.714 22.7231 569.541 24.6058C568.368 26.4884 565.832 27.1663 563.876 26.1199L558.702 23.3512V28.7527C558.702 31.0984 556.8 33 554.455 33C552.109 33 550.207 31.0984 550.207 28.7527V22.4771L545.803 24.8333C543.837 25.8852 541.174 25.281 539.854 23.4837C538.535 21.6864 539.059 19.3767 541.025 18.3248L545.166 16.1089L541.006 13.883C539.05 12.8366 538.416 10.4621 539.589 8.57946C540.761 6.69683 543.298 6.01894 545.253 7.06537L550.207 9.71591V4.24731Z" fill="#7FD7FF" fill-opacity="0.5"/>
</svg>
