<svg width="215" height="140" viewBox="0 0 215 140" fill="none" xmlns="http://www.w3.org/2000/svg">
<rect width="214.746" height="140" rx="18.3341" fill="#262930" fill-opacity="0.2"/>
<rect x="2.08955" y="2.08955" width="210.567" height="135.821" rx="16.2446" stroke="white" stroke-opacity="0.25" stroke-width="4.1791"/>
<path d="M74.2222 41.8135V35.6915H85.6595V70.2881H78.8256V41.8135H74.2222ZM91.0858 63.5491V58.3288L106.604 36.1186H114.34V57.7593H118.516V63.5491H114.34V70.2881H107.696V63.5491H91.0858ZM108.123 43.2372L98.3943 57.7593H108.123V43.2372Z" fill="white"/>
<path d="M40.3211 94.3187V101.556C40.3211 102.046 40.4318 102.402 40.6533 102.624C40.8905 102.829 41.286 102.932 41.8397 102.932H43.5007V105.187H41.3651C40.147 105.187 39.2137 104.902 38.5651 104.332C37.9165 103.763 37.5922 102.837 37.5922 101.556V94.3187H36.0499V92.1119H37.5922V88.8611H40.3211V92.1119H43.5007V94.3187H40.3211ZM44.2397 98.5899C44.2397 97.2769 44.5086 96.1142 45.0465 95.1018C45.6001 94.0893 46.3436 93.3063 47.277 92.7526C48.2261 92.1831 49.2702 91.8984 50.4092 91.8984C51.4374 91.8984 52.3312 92.104 53.0905 92.5153C53.8657 92.9108 54.4826 93.4091 54.9414 94.0103V92.1119H57.6702V105.187H54.9414V103.241C54.4826 103.858 53.8578 104.372 53.0668 104.783C52.2758 105.194 51.3741 105.4 50.3617 105.4C49.2385 105.4 48.2103 105.115 47.277 104.546C46.3436 103.961 45.6001 103.154 45.0465 102.126C44.5086 101.081 44.2397 99.9029 44.2397 98.5899ZM54.9414 98.6374C54.9414 97.7357 54.7515 96.9526 54.3719 96.2882C54.008 95.6238 53.5256 95.1176 52.9244 94.7696C52.3233 94.4216 51.6747 94.2475 50.9787 94.2475C50.2826 94.2475 49.634 94.4216 49.0329 94.7696C48.4318 95.1018 47.9414 95.6001 47.5617 96.2645C47.1979 96.9131 47.016 97.6882 47.016 98.5899C47.016 99.4916 47.1979 100.283 47.5617 100.963C47.9414 101.643 48.4318 102.165 49.0329 102.529C49.6498 102.877 50.2984 103.051 50.9787 103.051C51.6747 103.051 52.3233 102.877 52.9244 102.529C53.5256 102.181 54.008 101.675 54.3719 101.01C54.7515 100.33 54.9414 99.5391 54.9414 98.6374ZM65.1164 105.4C64.0882 105.4 63.1628 105.218 62.3402 104.854C61.5334 104.475 60.8927 103.968 60.4181 103.336C59.9436 102.687 59.6904 101.967 59.6588 101.176H62.4588C62.5063 101.73 62.7673 102.197 63.2419 102.576C63.7323 102.94 64.3413 103.122 65.069 103.122C65.8283 103.122 66.4136 102.98 66.8249 102.695C67.252 102.394 67.4656 102.015 67.4656 101.556C67.4656 101.066 67.2283 100.702 66.7537 100.464C66.295 100.227 65.5594 99.9662 64.5469 99.6814C63.5662 99.4125 62.7673 99.1515 62.1503 98.8984C61.5334 98.6453 60.9955 98.2577 60.5368 97.7357C60.0938 97.2136 59.8724 96.5255 59.8724 95.6713C59.8724 94.9752 60.078 94.3425 60.4893 93.773C60.9006 93.1877 61.4859 92.7289 62.2452 92.3967C63.0204 92.0645 63.9063 91.8984 64.9029 91.8984C66.3899 91.8984 67.5842 92.278 68.4859 93.0374C69.4034 93.7809 69.8938 94.8012 69.9571 96.0984H67.252C67.2046 95.5131 66.9673 95.0464 66.5402 94.6984C66.113 94.3504 65.5356 94.1764 64.808 94.1764C64.0961 94.1764 63.5503 94.3108 63.1707 94.5797C62.791 94.8487 62.6012 95.2046 62.6012 95.6475C62.6012 95.9956 62.7277 96.2882 62.9808 96.5255C63.2339 96.7628 63.5424 96.9526 63.9063 97.095C64.2701 97.2216 64.808 97.3877 65.5198 97.5933C66.469 97.8464 67.2441 98.1074 67.8452 98.3764C68.4622 98.6295 68.9921 99.0091 69.4351 99.5153C69.878 100.022 70.1074 100.694 70.1232 101.532C70.1232 102.276 69.9176 102.94 69.5063 103.526C69.095 104.111 68.5097 104.57 67.7503 104.902C67.0068 105.234 66.1289 105.4 65.1164 105.4ZM77.3665 98.6611L83.3936 105.187H79.7393L74.8987 99.5628V105.187H72.1936V87.6272H74.8987V97.8306L79.6444 92.1119H83.3936L77.3665 98.6611ZM89.2257 105.4C88.1975 105.4 87.272 105.218 86.4494 104.854C85.6427 104.475 85.002 103.968 84.5274 103.336C84.0528 102.687 83.7997 101.967 83.7681 101.176H86.5681C86.6155 101.73 86.8766 102.197 87.3511 102.576C87.8415 102.94 88.4506 103.122 89.1783 103.122C89.9376 103.122 90.5229 102.98 90.9342 102.695C91.3613 102.394 91.5749 102.015 91.5749 101.556C91.5749 101.066 91.3376 100.702 90.863 100.464C90.4042 100.227 89.6687 99.9662 88.6562 99.6814C87.6754 99.4125 86.8766 99.1515 86.2596 98.8984C85.6427 98.6453 85.1048 98.2577 84.6461 97.7357C84.2031 97.2136 83.9816 96.5255 83.9816 95.6713C83.9816 94.9752 84.1873 94.3425 84.5986 93.773C85.0099 93.1877 85.5952 92.7289 86.3545 92.3967C87.1297 92.0645 88.0155 91.8984 89.0122 91.8984C90.4992 91.8984 91.6935 92.278 92.5952 93.0374C93.5127 93.7809 94.0031 94.8012 94.0664 96.0984H91.3613C91.3139 95.5131 91.0766 95.0464 90.6494 94.6984C90.2223 94.3504 89.6449 94.1764 88.9172 94.1764C88.2054 94.1764 87.6596 94.3108 87.28 94.5797C86.9003 94.8487 86.7105 95.2046 86.7105 95.6475C86.7105 95.9956 86.837 96.2882 87.0901 96.5255C87.3432 96.7628 87.6517 96.9526 88.0155 97.095C88.3794 97.2216 88.9172 97.3877 89.6291 97.5933C90.5783 97.8464 91.3534 98.1074 91.9545 98.3764C92.5715 98.6295 93.1014 99.0091 93.5444 99.5153C93.9873 100.022 94.2167 100.694 94.2325 101.532C94.2325 102.276 94.0268 102.94 93.6155 103.526C93.2042 104.111 92.6189 104.57 91.8596 104.902C91.1161 105.234 90.2381 105.4 89.2257 105.4ZM100.713 98.5899C100.713 97.2769 100.981 96.1142 101.519 95.1018C102.073 94.0893 102.817 93.3063 103.75 92.7526C104.699 92.1831 105.751 91.8984 106.906 91.8984C107.76 91.8984 108.598 92.0882 109.421 92.4679C110.259 92.8317 110.924 93.3221 111.414 93.9391V87.6272H114.143V105.187H111.414V103.217C110.971 103.85 110.354 104.372 109.563 104.783C108.788 105.194 107.894 105.4 106.882 105.4C105.743 105.4 104.699 105.115 103.75 104.546C102.817 103.961 102.073 103.154 101.519 102.126C100.981 101.081 100.713 99.9029 100.713 98.5899ZM111.414 98.6374C111.414 97.7357 111.224 96.9526 110.845 96.2882C110.481 95.6238 109.998 95.1176 109.397 94.7696C108.796 94.4216 108.148 94.2475 107.452 94.2475C106.755 94.2475 106.107 94.4216 105.506 94.7696C104.905 95.1018 104.414 95.6001 104.035 96.2645C103.671 96.9131 103.489 97.6882 103.489 98.5899C103.489 99.4916 103.671 100.283 104.035 100.963C104.414 101.643 104.905 102.165 105.506 102.529C106.123 102.877 106.771 103.051 107.452 103.051C108.148 103.051 108.796 102.877 109.397 102.529C109.998 102.181 110.481 101.675 110.845 101.01C111.224 100.33 111.414 99.5391 111.414 98.6374ZM122.515 105.4C121.281 105.4 120.166 105.123 119.169 104.57C118.172 104 117.389 103.209 116.82 102.197C116.25 101.168 115.966 99.982 115.966 98.6374C115.966 97.3086 116.258 96.13 116.844 95.1018C117.429 94.0735 118.228 93.2826 119.24 92.7289C120.253 92.1752 121.384 91.8984 122.633 91.8984C123.883 91.8984 125.014 92.1752 126.027 92.7289C127.039 93.2826 127.838 94.0735 128.423 95.1018C129.009 96.13 129.301 97.3086 129.301 98.6374C129.301 99.9662 129.001 101.145 128.399 102.173C127.798 103.201 126.976 104 125.932 104.57C124.903 105.123 123.764 105.4 122.515 105.4ZM122.515 103.051C123.211 103.051 123.859 102.885 124.46 102.553C125.077 102.22 125.576 101.722 125.955 101.058C126.335 100.393 126.525 99.5865 126.525 98.6374C126.525 97.6882 126.343 96.8893 125.979 96.2408C125.615 95.5764 125.133 95.078 124.532 94.7458C123.931 94.4136 123.282 94.2475 122.586 94.2475C121.89 94.2475 121.241 94.4136 120.64 94.7458C120.055 95.078 119.588 95.5764 119.24 96.2408C118.892 96.8893 118.718 97.6882 118.718 98.6374C118.718 100.045 119.074 101.137 119.786 101.912C120.514 102.671 121.423 103.051 122.515 103.051ZM137.719 91.8984C138.748 91.8984 139.665 92.1119 140.472 92.5391C141.295 92.9662 141.935 93.599 142.394 94.4374C142.853 95.2758 143.082 96.2882 143.082 97.4747V105.187H140.401V97.878C140.401 96.7074 140.108 95.8136 139.523 95.1967C138.937 94.5639 138.139 94.2475 137.126 94.2475C136.114 94.2475 135.307 94.5639 134.706 95.1967C134.121 95.8136 133.828 96.7074 133.828 97.878V105.187H131.123V92.1119H133.828V93.6069C134.271 93.069 134.832 92.6498 135.513 92.3492C136.209 92.0487 136.944 91.8984 137.719 91.8984ZM157.663 98.3289C157.663 98.8193 157.631 99.2622 157.568 99.6577H147.578C147.657 100.702 148.045 101.54 148.741 102.173C149.437 102.806 150.291 103.122 151.304 103.122C152.759 103.122 153.787 102.513 154.389 101.295H157.307C156.912 102.497 156.192 103.486 155.148 104.261C154.12 105.02 152.838 105.4 151.304 105.4C150.054 105.4 148.931 105.123 147.934 104.57C146.953 104 146.178 103.209 145.609 102.197C145.055 101.168 144.778 99.982 144.778 98.6374C144.778 97.2927 145.047 96.1142 145.585 95.1018C146.139 94.0735 146.906 93.2826 147.887 92.7289C148.883 92.1752 150.022 91.8984 151.304 91.8984C152.538 91.8984 153.637 92.1673 154.602 92.7052C155.567 93.243 156.318 94.0023 156.856 94.9831C157.394 95.9481 157.663 97.0634 157.663 98.3289ZM154.839 97.4747C154.824 96.478 154.468 95.6792 153.772 95.078C153.076 94.4769 152.213 94.1764 151.185 94.1764C150.252 94.1764 149.453 94.4769 148.789 95.078C148.124 95.6634 147.729 96.4622 147.602 97.4747H154.839Z" fill="white" fill-opacity="0.75"/>
</svg>
