<svg width="292" height="264" viewBox="0 0 292 264" fill="none" xmlns="http://www.w3.org/2000/svg">
<rect x="0.954102" width="291.046" height="264" rx="15" fill="#262930" fill-opacity="0.9"/>
<path d="M34.8376 188.952L61.0407 137.331L111.054 159.076L152.941 159.337L181.841 99.9338L229.042 112.068L255.182 50.6869" stroke="#7FD7FF" stroke-width="5"/>
<ellipse cx="7.18501" cy="7.82398" rx="7.18501" ry="7.82398" transform="matrix(0.955271 -0.295732 0.271325 0.962488 246.803 42.7061)" fill="#7FD7FF"/>
<ellipse cx="7.18501" cy="7.82398" rx="7.18501" ry="7.82398" transform="matrix(0.955271 -0.295732 0.271325 0.962488 24.167 184.772)" fill="#7FD7FF"/>
<ellipse cx="7.18501" cy="7.82398" rx="7.18501" ry="7.82398" transform="matrix(0.955271 -0.295732 0.271325 0.962488 52.3203 132.87)" fill="#7FD7FF"/>
<ellipse cx="7.18501" cy="7.82398" rx="7.18501" ry="7.82398" transform="matrix(0.955271 -0.295732 0.271325 0.962488 100.605 152.375)" fill="#7FD7FF"/>
<ellipse cx="7.18501" cy="7.82398" rx="7.18501" ry="7.82398" transform="matrix(0.955271 -0.295732 0.271325 0.962488 143.354 152.241)" fill="#7FD7FF"/>
<ellipse cx="7.18501" cy="7.82398" rx="7.18501" ry="7.82398" transform="matrix(0.955271 -0.295732 0.271325 0.962488 173.628 93.7432)" fill="#7FD7FF"/>
<ellipse cx="7.18501" cy="7.82398" rx="7.18501" ry="7.82398" transform="matrix(0.955271 -0.295732 0.271325 0.962488 218.575 104.938)" fill="#7FD7FF"/>
<path d="M42.7739 33.5685L36.9883 47.4333H34.9685L36.8856 42.8459L33.1712 33.5685H35.345L37.9982 40.7577L40.7541 33.5685H42.7739ZM48.4347 43.1541C47.5447 43.1541 46.7402 42.9544 46.0212 42.555C45.3023 42.1441 44.7375 41.5736 44.3266 40.8432C43.9158 40.1015 43.7104 39.2456 43.7104 38.2757C43.7104 37.3171 43.9215 36.467 44.3438 35.7252C44.766 34.9835 45.3423 34.4129 46.0726 34.0135C46.8029 33.6141 47.6188 33.4144 48.5203 33.4144C49.4218 33.4144 50.2378 33.6141 50.9681 34.0135C51.6984 34.4129 52.2747 34.9835 52.6969 35.7252C53.1191 36.467 53.3302 37.3171 53.3302 38.2757C53.3302 39.2342 53.1134 40.0844 52.6798 40.8261C52.2462 41.5679 51.6528 42.1441 50.8996 42.555C50.1579 42.9544 49.3363 43.1541 48.4347 43.1541ZM48.4347 41.4595C48.9369 41.4595 49.4047 41.3396 49.8384 41.1C50.2834 40.8604 50.6429 40.5009 50.9167 40.0216C51.1906 39.5423 51.3275 38.9604 51.3275 38.2757C51.3275 37.591 51.1963 37.0147 50.9338 36.5468C50.6714 36.0676 50.3233 35.7081 49.8897 35.4685C49.4561 35.2288 48.9882 35.109 48.4861 35.109C47.984 35.109 47.5161 35.2288 47.0825 35.4685C46.6603 35.7081 46.3236 36.0676 46.0726 36.5468C45.8215 37.0147 45.696 37.591 45.696 38.2757C45.696 39.2913 45.9528 40.0787 46.4663 40.6378C46.9912 41.1856 47.6474 41.4595 48.4347 41.4595ZM63.898 33.5685V43H61.9466V41.8874C61.6385 42.2754 61.2334 42.5835 60.7313 42.8117C60.2406 43.0285 59.7157 43.1369 59.1565 43.1369C58.4148 43.1369 57.7472 42.9829 57.1538 42.6748C56.5719 42.3667 56.1097 41.9102 55.7674 41.3054C55.4364 40.7006 55.271 39.9703 55.271 39.1144V33.5685H57.2052V38.8234C57.2052 39.6679 57.4163 40.3183 57.8385 40.7748C58.2607 41.2198 58.837 41.4423 59.5674 41.4423C60.2977 41.4423 60.874 41.2198 61.2962 40.7748C61.7298 40.3183 61.9466 39.6679 61.9466 38.8234V33.5685H63.898ZM75.992 33.4144C76.7109 33.4144 77.35 33.5685 77.9091 33.8766C78.4797 34.1847 78.9247 34.6411 79.2443 35.2459C79.5752 35.8508 79.7407 36.5811 79.7407 37.4369V43H77.8064V37.7279C77.8064 36.8835 77.5953 36.2387 77.1731 35.7937C76.7509 35.3372 76.1746 35.109 75.4443 35.109C74.7139 35.109 74.1319 35.3372 73.6983 35.7937C73.2761 36.2387 73.065 36.8835 73.065 37.7279V43H71.1136V30.3333H73.065V34.664C73.3959 34.2646 73.8124 33.9565 74.3145 33.7396C74.828 33.5228 75.3872 33.4144 75.992 33.4144ZM81.6766 38.2414C81.6766 37.2943 81.8705 36.4556 82.2585 35.7252C82.6579 34.9949 83.1943 34.43 83.8675 34.0306C84.5522 33.6198 85.3054 33.4144 86.127 33.4144C86.8687 33.4144 87.5135 33.5628 88.0612 33.8595C88.6204 34.1447 89.0654 34.5042 89.3964 34.9378V33.5685H91.3648V43H89.3964V41.5964C89.0654 42.0414 88.6147 42.4123 88.0441 42.709C87.4736 43.0057 86.8231 43.1541 86.0928 43.1541C85.2826 43.1541 84.5408 42.9486 83.8675 42.5378C83.1943 42.1156 82.6579 41.5336 82.2585 40.7919C81.8705 40.0387 81.6766 39.1886 81.6766 38.2414ZM89.3964 38.2757C89.3964 37.6252 89.2594 37.0604 88.9856 36.5811C88.7231 36.1018 88.3751 35.7366 87.9414 35.4856C87.5078 35.2345 87.0399 35.109 86.5378 35.109C86.0357 35.109 85.5678 35.2345 85.1342 35.4856C84.7006 35.7252 84.3468 36.0847 84.073 36.564C83.8105 37.0318 83.6793 37.591 83.6793 38.2414C83.6793 38.8919 83.8105 39.4625 84.073 39.9532C84.3468 40.4438 84.7006 40.8204 85.1342 41.0829C85.5793 41.3339 86.0471 41.4595 86.5378 41.4595C87.0399 41.4595 87.5078 41.3339 87.9414 41.0829C88.3751 40.8318 88.7231 40.4667 88.9856 39.9874C89.2594 39.4967 89.3964 38.9261 89.3964 38.2757ZM97.6711 41.2541L100.341 33.5685H102.413L98.8179 43H96.49L92.9125 33.5685H95.0008L97.6711 41.2541ZM112.629 38.0532C112.629 38.4069 112.606 38.7264 112.56 39.0117H105.354C105.411 39.7649 105.691 40.3697 106.193 40.8261C106.695 41.2826 107.311 41.5108 108.042 41.5108C109.091 41.5108 109.833 41.0715 110.267 40.1928H112.372C112.087 41.0601 111.568 41.7733 110.815 42.3324C110.073 42.8802 109.148 43.1541 108.042 43.1541C107.14 43.1541 106.33 42.9544 105.611 42.555C104.903 42.1441 104.344 41.5736 103.933 40.8432C103.534 40.1015 103.334 39.2456 103.334 38.2757C103.334 37.3057 103.528 36.4556 103.916 35.7252C104.316 34.9835 104.869 34.4129 105.577 34.0135C106.296 33.6141 107.117 33.4144 108.042 33.4144C108.932 33.4144 109.725 33.6084 110.421 33.9964C111.117 34.3844 111.659 34.9321 112.047 35.6396C112.435 36.3357 112.629 37.1402 112.629 38.0532ZM110.592 37.4369C110.581 36.718 110.324 36.1417 109.822 35.7081C109.32 35.2745 108.698 35.0577 107.956 35.0577C107.283 35.0577 106.706 35.2745 106.227 35.7081C105.748 36.1303 105.463 36.7066 105.371 37.4369H110.592ZM118.54 38.2757C118.54 37.3057 118.734 36.4556 119.122 35.7252C119.521 34.9835 120.069 34.4129 120.765 34.0135C121.461 33.6141 122.26 33.4144 123.161 33.4144C124.303 33.4144 125.244 33.6883 125.986 34.236C126.739 34.7724 127.247 35.5426 127.509 36.5468H125.404C125.233 36.079 124.959 35.7138 124.582 35.4514C124.206 35.1889 123.732 35.0577 123.161 35.0577C122.363 35.0577 121.724 35.3429 121.244 35.9135C120.776 36.4727 120.543 37.2601 120.543 38.2757C120.543 39.2913 120.776 40.0844 121.244 40.655C121.724 41.2255 122.363 41.5108 123.161 41.5108C124.291 41.5108 125.039 41.0144 125.404 40.0216H127.509C127.235 40.9802 126.722 41.7447 125.969 42.3153C125.216 42.8745 124.28 43.1541 123.161 43.1541C122.26 43.1541 121.461 42.9544 120.765 42.555C120.069 42.1441 119.521 41.5736 119.122 40.8432C118.734 40.1015 118.54 39.2456 118.54 38.2757ZM133.642 43.1541C132.752 43.1541 131.948 42.9544 131.229 42.555C130.51 42.1441 129.945 41.5736 129.534 40.8432C129.123 40.1015 128.918 39.2456 128.918 38.2757C128.918 37.3171 129.129 36.467 129.551 35.7252C129.973 34.9835 130.55 34.4129 131.28 34.0135C132.01 33.6141 132.826 33.4144 133.728 33.4144C134.629 33.4144 135.445 33.6141 136.175 34.0135C136.906 34.4129 137.482 34.9835 137.904 35.7252C138.327 36.467 138.538 37.3171 138.538 38.2757C138.538 39.2342 138.321 40.0844 137.887 40.8261C137.454 41.5679 136.86 42.1441 136.107 42.555C135.365 42.9544 134.544 43.1541 133.642 43.1541ZM133.642 41.4595C134.144 41.4595 134.612 41.3396 135.046 41.1C135.491 40.8604 135.85 40.5009 136.124 40.0216C136.398 39.5423 136.535 38.9604 136.535 38.2757C136.535 37.591 136.404 37.0147 136.141 36.5468C135.879 36.0676 135.531 35.7081 135.097 35.4685C134.663 35.2288 134.196 35.109 133.693 35.109C133.191 35.109 132.724 35.2288 132.29 35.4685C131.868 35.7081 131.531 36.0676 131.28 36.5468C131.029 37.0147 130.903 37.591 130.903 38.2757C130.903 39.2913 131.16 40.0787 131.674 40.6378C132.199 41.1856 132.855 41.4595 133.642 41.4595ZM142.515 30.3333V43H140.564V30.3333H142.515ZM147.126 30.3333V43H145.175V30.3333H147.126ZM158.429 38.0532C158.429 38.4069 158.406 38.7264 158.361 39.0117H151.154C151.212 39.7649 151.491 40.3697 151.993 40.8261C152.495 41.2826 153.112 41.5108 153.842 41.5108C154.892 41.5108 155.633 41.0715 156.067 40.1928H158.172C157.887 41.0601 157.368 41.7733 156.615 42.3324C155.873 42.8802 154.949 43.1541 153.842 43.1541C152.94 43.1541 152.13 42.9544 151.411 42.555C150.704 42.1441 150.145 41.5736 149.734 40.8432C149.334 40.1015 149.135 39.2456 149.135 38.2757C149.135 37.3057 149.329 36.4556 149.717 35.7252C150.116 34.9835 150.669 34.4129 151.377 34.0135C152.096 33.6141 152.918 33.4144 153.842 33.4144C154.732 33.4144 155.525 33.6084 156.221 33.9964C156.917 34.3844 157.459 34.9321 157.847 35.6396C158.235 36.3357 158.429 37.1402 158.429 38.0532ZM156.392 37.4369C156.381 36.718 156.124 36.1417 155.622 35.7081C155.12 35.2745 154.498 35.0577 153.756 35.0577C153.083 35.0577 152.507 35.2745 152.027 35.7081C151.548 36.1303 151.263 36.7066 151.172 37.4369H156.392ZM159.796 38.2757C159.796 37.3057 159.99 36.4556 160.378 35.7252C160.778 34.9835 161.326 34.4129 162.022 34.0135C162.718 33.6141 163.517 33.4144 164.418 33.4144C165.559 33.4144 166.501 33.6883 167.242 34.236C167.995 34.7724 168.503 35.5426 168.766 36.5468H166.66C166.489 36.079 166.215 35.7138 165.839 35.4514C165.462 35.1889 164.989 35.0577 164.418 35.0577C163.619 35.0577 162.98 35.3429 162.501 35.9135C162.033 36.4727 161.799 37.2601 161.799 38.2757C161.799 39.2913 162.033 40.0844 162.501 40.655C162.98 41.2255 163.619 41.5108 164.418 41.5108C165.548 41.5108 166.295 41.0144 166.66 40.0216H168.766C168.492 40.9802 167.978 41.7447 167.225 42.3153C166.472 42.8745 165.536 43.1541 164.418 43.1541C163.517 43.1541 162.718 42.9544 162.022 42.555C161.326 42.1441 160.778 41.5736 160.378 40.8432C159.99 40.1015 159.796 39.2456 159.796 38.2757ZM173.084 35.1604V40.3811C173.084 40.7348 173.164 40.9916 173.324 41.1514C173.495 41.2997 173.78 41.3739 174.18 41.3739H175.378V43H173.837C172.959 43 172.285 42.7946 171.818 42.3838C171.35 41.973 171.116 41.3054 171.116 40.3811V35.1604H170.003V33.5685H171.116V31.2234H173.084V33.5685H175.378V35.1604H173.084ZM185.918 38.0532C185.918 38.4069 185.895 38.7264 185.849 39.0117H178.643C178.7 39.7649 178.98 40.3697 179.482 40.8261C179.984 41.2826 180.6 41.5108 181.331 41.5108C182.38 41.5108 183.122 41.0715 183.556 40.1928H185.661C185.376 41.0601 184.857 41.7733 184.103 42.3324C183.362 42.8802 182.437 43.1541 181.331 43.1541C180.429 43.1541 179.619 42.9544 178.9 42.555C178.192 42.1441 177.633 41.5736 177.222 40.8432C176.823 40.1015 176.623 39.2456 176.623 38.2757C176.623 37.3057 176.817 36.4556 177.205 35.7252C177.605 34.9835 178.158 34.4129 178.866 34.0135C179.585 33.6141 180.406 33.4144 181.331 33.4144C182.221 33.4144 183.014 33.6084 183.71 33.9964C184.406 34.3844 184.948 34.9321 185.336 35.6396C185.724 36.3357 185.918 37.1402 185.918 38.0532ZM183.881 37.4369C183.87 36.718 183.613 36.1417 183.111 35.7081C182.609 35.2745 181.987 35.0577 181.245 35.0577C180.572 35.0577 179.995 35.2745 179.516 35.7081C179.037 36.1303 178.752 36.7066 178.66 37.4369H183.881ZM187.285 38.2414C187.285 37.2943 187.479 36.4556 187.867 35.7252C188.266 34.9949 188.803 34.43 189.476 34.0306C190.161 33.6198 190.92 33.4144 191.753 33.4144C192.369 33.4144 192.974 33.5514 193.567 33.8252C194.172 34.0877 194.651 34.4414 195.005 34.8865V30.3333H196.973V43H195.005V41.5793C194.685 42.0357 194.24 42.4123 193.67 42.709C193.111 43.0057 192.466 43.1541 191.735 43.1541C190.914 43.1541 190.161 42.9486 189.476 42.5378C188.803 42.1156 188.266 41.5336 187.867 40.7919C187.479 40.0387 187.285 39.1886 187.285 38.2414ZM195.005 38.2757C195.005 37.6252 194.868 37.0604 194.594 36.5811C194.332 36.1018 193.984 35.7366 193.55 35.4856C193.116 35.2345 192.648 35.109 192.146 35.109C191.644 35.109 191.176 35.2345 190.743 35.4856C190.309 35.7252 189.955 36.0847 189.681 36.564C189.419 37.0318 189.288 37.591 189.288 38.2414C189.288 38.8919 189.419 39.4625 189.681 39.9532C189.955 40.4438 190.309 40.8204 190.743 41.0829C191.188 41.3339 191.656 41.4595 192.146 41.4595C192.648 41.4595 193.116 41.3339 193.55 41.0829C193.984 40.8318 194.332 40.4667 194.594 39.9874C194.868 39.4967 195.005 38.9261 195.005 38.2757Z" fill="white" fill-opacity="0.5"/>
<path d="M34.3084 82.4037C35.0689 81.7998 35.4156 81.5202 35.3485 81.565C37.5404 79.7533 39.2626 78.2659 40.5151 77.1029C41.79 75.9398 42.8636 74.7209 43.7359 73.446C44.6081 72.1711 45.0443 70.9298 45.0443 69.722C45.0443 68.805 44.8318 68.0892 44.4068 67.5748C43.9819 67.0604 43.3444 66.8032 42.4945 66.8032C41.6446 66.8032 40.9736 67.1275 40.4815 67.7761C40.0119 68.4024 39.777 69.297 39.777 70.4601H34.2413C34.2861 68.5589 34.6887 66.9709 35.4491 65.696C36.2319 64.4212 37.2496 63.4818 38.5021 62.8779C39.777 62.274 41.1861 61.972 42.7294 61.972C45.391 61.972 47.3928 62.6542 48.7347 64.0186C50.0991 65.3829 50.7813 67.161 50.7813 69.3529C50.7813 71.7461 49.9649 73.9716 48.3321 76.0293C46.6994 78.0646 44.6193 80.0552 42.0919 82.0011H51.1503V86.6645H34.3084V82.4037ZM53.9865 69.42C54.0759 67.0268 54.8588 65.1816 56.3349 63.8844C57.8111 62.5871 59.8129 61.9385 62.3403 61.9385C64.0178 61.9385 65.4492 62.2292 66.6346 62.8108C67.8424 63.3923 68.7483 64.1863 69.3522 65.1928C69.9784 66.1993 70.2915 67.3288 70.2915 68.5813C70.2915 70.0575 69.9225 71.2653 69.1844 72.2046C68.4463 73.1217 67.5852 73.7479 66.6011 74.0834V74.2176C67.876 74.6426 68.8825 75.3471 69.6206 76.3312C70.3586 77.3154 70.7277 78.5791 70.7277 80.1223C70.7277 81.5091 70.4034 82.7392 69.7548 83.8128C69.1285 84.864 68.2003 85.6916 66.9701 86.2955C65.7624 86.8994 64.3197 87.2013 62.6423 87.2013C59.9583 87.2013 57.8111 86.5415 56.2007 85.2219C54.6127 83.9023 53.774 81.9117 53.6845 79.2501H59.2537C59.2761 80.2342 59.5557 81.017 60.0925 81.5985C60.6293 82.1577 61.4121 82.4373 62.441 82.4373C63.3132 82.4373 63.9842 82.1912 64.4539 81.6992C64.946 81.1847 65.192 80.5138 65.192 79.6862C65.192 78.6126 64.8453 77.841 64.152 77.3713C63.481 76.8792 62.3962 76.6332 60.8977 76.6332H59.8241V71.9698H60.8977C62.0384 71.9698 62.9554 71.7797 63.6487 71.3995C64.3645 70.9969 64.7223 70.2923 64.7223 69.2858C64.7223 68.4806 64.4987 67.8544 64.0513 67.4071C63.604 66.9597 62.9889 66.7361 62.2061 66.7361C61.3562 66.7361 60.7187 66.9933 60.2938 67.5077C59.8912 68.0221 59.6563 68.6596 59.5892 69.42H53.9865ZM74.3415 82.6386V78.0087L84.9432 62.8443H91.3511V77.6732H94.1022V82.6386H91.3511V87H85.6142V82.6386H74.3415ZM86.0168 69.1516L80.3804 77.6732H86.0168V69.1516ZM119.236 87L114.439 79.7868L110.212 87H103.703L111.252 75.0228L103.535 63.4482H110.212L114.942 70.5607L119.102 63.4482H125.611L118.129 75.3248L125.913 87H119.236ZM146.851 71.0304C146.851 72.3948 146.538 73.6473 145.911 74.788C145.285 75.9063 144.323 76.8121 143.026 77.5055C141.729 78.1988 140.118 78.5455 138.195 78.5455H134.639V87H128.902V63.4482H138.195C140.074 63.4482 141.662 63.7725 142.959 64.4212C144.256 65.0698 145.229 65.9644 145.878 67.1051C146.526 68.2458 146.851 69.5542 146.851 71.0304ZM137.759 73.9828C138.855 73.9828 139.671 73.7256 140.208 73.2111C140.745 72.6967 141.013 71.9698 141.013 71.0304C141.013 70.091 140.745 69.3641 140.208 68.8497C139.671 68.3353 138.855 68.0781 137.759 68.0781H134.639V73.9828H137.759Z" fill="#7FD7FF"/>
</svg>
